<svg version="1.1" class="florida" xmlns="http://www.w3.org/2000/svg" xmlns:xlink="http://www.w3.org/1999/xlink" viewBox="0 0 400 400">
<path d="M331.691,382.085l-0.402-0.015l-0.202,0.194l0.151,0.391l0.173,0.207l0.483,0.323l0.402,0.545l0.112-0.282l-0.267-0.852
	L331.691,382.085z M326.687,384.881l0.14,0.184l0.37,0.234l0.217-0.454l-0.375-0.227L326.687,384.881z M329.109,318.299L328.5,318.7
	l0.021,0.282l1.397,0.555l0.389-0.086l0.386-0.411l-0.197-0.401l-0.613-0.129l-0.295,0.081l-0.214,0.124l-0.139-0.26
	L329.109,318.299z M328.625,380.696l-1.57-1.228l-0.368-0.058l-0.156-0.096l-0.155-0.204l3.484,5.394l0.074,1.725l1.168-0.883
	l-0.777-2.274L328.625,380.696z M327.039,318.062l0.579,0.698l0.173,0.192l0.197,0.088l-0.01-0.169l0.14-0.171l0.198-0.262
	l0.31-0.219l0.533-0.063l0.357-0.169l-0.14-0.358l-0.376-0.28l-0.358-0.184l-0.948-0.746l-0.367-0.361l-0.909-0.454l-0.588,0.499
	l-0.032,0.577l0.078,0.338v1.326l0.342-0.045l0.419-0.396L327.039,318.062z M325.158,317.081l0.156-0.386l-0.156-0.391l-0.14-0.176
	l-0.105-0.487l-0.374-0.89l-0.484-0.406l-0.825,0.161l-0.233,0.121l-0.465,0.103l-0.715,0.361l-0.158,0.638l0.252,0.343l0.158,0.154
	v0.232l0.058-0.025l0.095-0.393l0.049-0.229l0.009-0.267l0.27-0.207l0.246,0.192l0.156,0.202l0.826,0.066l0.294,0.416l0.155,0.315
	l0.221,0.338l0.369,0.371L325.158,317.081z M325.443,383.401l-0.39-0.04l-0.108,0.179l0.183,0.015l-0.074,0.096l-0.345,0.293
	l0.066,0.388l0.605,0.535l0.124,0.25l0.277,0.013l0.112-0.575l-0.139-0.641L325.443,383.401z M335.068,383.931l-0.657,0.789
	l0.079,0.111l0.513-0.277l0.421-0.403l-0.095-0.237L335.068,383.931z M365.931,358.987l0.734,0.436l-0.189-0.356L365.931,358.987z
	 M364.173,357.033l0.284,0.451l0.091-0.466L364.173,357.033z M365.898,357.948l-0.228-0.139l-0.067,0.575l0.156-0.068l0.203-0.058
	L365.898,357.948z M342.949,381.364l-1.073,0.499l1.695,0.015l0.588,0.343l0.269,0.85l0.266-0.774l0.34-0.542l0.466-0.391
	l1.243-0.499l0.154-0.169l0.049-0.398l-1.136,0.166L342.949,381.364z M363.181,364.852l-0.03,0.373l0.359-0.298L363.181,364.852z
	 M323.621,383.245l-0.17-0.197l-0.388-0.313l-0.406-0.189l-0.327-0.03l-0.246-0.154l-0.173,0.045l-0.221,0.608l-0.057,0.761
	l0.213,0.499l0.124,0.121l0.144,0.106l0.246,0.066l0.223-0.141l0.262-0.076l0.325,0.108l0.295,0.298l0.218,0.416l0.159-0.247
	l-0.083-1.057L323.621,383.245z M363.723,372.654l-0.449,0.237l-0.327,0.315l-0.124,0.368l0.247,0.033l0.807-0.532l0.393-0.28
	l0.604-0.693l-0.08-0.27L363.723,372.654z M359.915,374.742l-0.327,0.308l-0.142-0.091l0.016-0.409l0.091-0.552l-2.346,1.674
	l-0.525,0.638l1.923-0.139l0.857-0.234l0.453-0.403l0.267-0.358l0.074-0.171l-0.018-0.262h-0.323V374.742z M347.306,381.089
	l3.898-1.667l0.761-0.701l0.656-0.121l0.217-0.116l0.216-0.194v-0.358l-1.659,0.368L347.306,381.089z M361.702,362.78l0.361,0.58
	l0.016-0.293l-0.188-0.499L361.702,362.78z M312.082,314.067l0.14,0.277l0.143,0.386l0.31,0.159l0.686,0.093l0.279-0.323
	l0.638-1.122l-0.188-0.605l-0.671-0.252l-0.663,0.111l-0.533-0.03l-0.495,0.056l-0.122,0.532l0.103,0.345l0.124,0.136
	L312.082,314.067z M283.487,267.715l-0.066-1.402l-0.335-0.3l-0.173-0.093h-0.252l0.671,2.756l0.451,1.178l0.716,1.342l-0.203-1.321
	L283.487,267.715z M159.771,80.447l-1.242,0.796l-2.1,1.101l-0.403,0.508l2.938-0.637l1.182-0.653l0.527-1.193l-0.385-0.123
	L159.771,80.447z M263.178,226.011l-1.273-2.348l-0.518-0.439l-0.881-0.421l0.233,0.729l0.634,1.014l0.376,0.451l0.434,0.918
	l2.239,2.645l0.918,0.711l-0.199-0.9L263.178,226.011z M282.785,262.566l-0.262-1.276l-0.572-1.354l-0.253-0.406l-0.155,0.045
	l-0.311,0.361l0.497,1.074l0.173,2.857l0.435,1.246l0.392-1.306L282.785,262.566z M241.69,120.983l-0.267-0.359l-0.368-0.263
	l-0.391,0.328l-0.034,0.838l0.44,0.247l0.681-0.325l0.376-0.139l-0.174-0.096L241.69,120.983z M152.888,85.176l-0.702,0.229
	l-0.247,0.109l-0.187,0.284l-0.222,0.262l-0.417,0.123l-0.547,0.092l-0.138,0.216l-0.03,0.267l-0.173,0.247l-11.21,5.398
	l-2.317,0.576l-1.183,0.078l-1.431-0.873l-0.855-0.202l1.371,0.936l1.163,0.359l3.08-0.018l1.121-0.341l3.203-1.85l1.104-0.936
	l5.242-2.252l3.122-2.443l1.201-0.483l-0.015-0.247l0.431-0.407l0.296-0.137V83.71l-0.671,0.36L152.888,85.176z M378.619,199.354
	l1.513,4.386l0.978,1.727l0.124,0.514l0.107,0.714l0.465,1.198l0.262,1.773l0.376,0.835l0.482,0.764l0.466,0.993l2.165,8.911
	l0.666,1.881l0.081,0.751l0.156,0.328l0.728,0.585l0.155,0.282l0.204,0.855l3.204,7.043l0.557,2.302l1.072,1.276l0.75,1.677
	l-0.221-1.364l-8.983-24.182l-0.171-0.938l-0.1-1.22l-0.23-1.228l-0.745-2.206l-2.133-3.724l-1.07-2.426l-0.407-2.411l-0.158-0.212
	l-0.136-0.121l-0.092-0.176v-0.293l-0.391,0.125l-0.141,0.107l-0.184,0.201L378.619,199.354z M50.968,44.257l-1.816,0.473
	l-0.357-0.421l-1.244,0.529l-5.662,0.76l-2.298-0.075L38.78,45.63l-1.448,0.554l-0.482,0.207l-1.29,0.417l-3.746-0.042l-3.081,1.086
	l-6.093,1.027l-4.275,0.093l-0.967,0.36l2.909,0.371l35.766-4.555l0.574,0.268l0.592,0.091l0.526-0.091l0.439-0.268l-5.026-0.653
	L50.968,44.257z M133.648,89.402l0.295-0.293l-0.122-0.655l-0.081-0.066l-0.671-0.055l-0.695-0.252l-1.308-0.201l-0.759,0.652
	l-0.983,0.078l-2.174-0.328l0.54,0.465l1.062,0.424l0.557,0.314l0.36,0.416l0.357,0.555l0.403,0.499l0.465,0.206l1.122,0.415h0.621
	l0.269-0.607l0.123-0.555l0.277-0.544L133.648,89.402z M292.315,280.28l-1.006,0.088l-1.741-0.391l-1.028-0.434l-0.81-0.635
	l-0.623-0.9l-0.449-1.213l-0.14-0.653l-0.203-0.562l-0.28-0.467l-0.465-0.361l0.232,1.806l0.499,1.836l0.371,0.872l0.483,0.638
	l0.575,0.479l3.187,1.851l0.809,0.189l0.9-0.297l1.339-1.122l0.997-0.217l-2.19-1.195L292.315,280.28z M314.45,388.16l-1.432,0.393
	l-0.623,0.03l-0.497-0.424h-0.329l-0.246,0.343l-0.112,0.328l0.063,0.293l0.295,0.292v0.361l-0.53,0.59l-0.231,0.187l3.998-1.137
	l-0.237-0.986L314.45,388.16z M310.231,389.791l-0.214-0.214l-0.28-0.161h-0.327l-1.077,0.936l-0.401,0.202l-0.562-0.04
	l-0.559-0.187l-0.45,0.124l-0.221,0.9l1.589-0.217l0.791-0.237l0.499-0.343l0.219-0.356l0.171-0.421l0.214,0.33l0.048-0.018
	l0.015-0.189l0.049-0.124l0.125,0.298l0.137,0.237l0.187,0.154l0.296,0.088l-0.081-0.446L310.231,389.791z M367.721,360.573
	l0.232-0.154l-0.141-0.345l-0.248,0.156L367.721,360.573z M320.228,383.071l-0.17-0.056l-0.154,0.015l-0.093-0.083l0.034-0.293
	h-0.328l-0.358,1.215l0.53,0.061l0.359,0.139l0.074,0.219l-0.277,0.33v0.431l0.949-0.083l0.555,0.315l0.173,0.56l-0.25,0.777h-0.324
	l-0.28-0.683l-0.686-0.454l-1.555-0.431l0.311,0.401l0.327,0.282l0.779,0.494l-0.393,0.497l-0.172,0.101l-0.121,0.189l-0.327,0.227
	l-1.156,0.565l-0.523-0.313l-0.604,0.229l-1.031,0.875v0.386l3.762-1.069l1.807-0.746l1.307-0.941v-0.431l-1.807-2.103
	L320.228,383.071z M320.635,313.023l-0.357-0.416l-0.654-0.065l-0.141,0.497l0.125,0.343l0.252,0.262l0.327,0.171l0.073,0.514
	l-0.122,0.885l0.158,0.234l0.48-1.009l0.156-0.449l-0.124-0.378l-0.269-0.297l-0.107-0.169l0.049-0.04L320.635,313.023z
	 M289.816,267.37l-1.025-1.057l-1.06-0.393h-0.712l0.686,1.712l0.991,1.869l0.7,1.788l-0.218,1.46l0.687,1.137l0.79,2.877
	l0.697,1.195l0.702,0.25l0.048-1.026l-0.375-2.998l-0.419-0.86l-0.807-1.258l-0.624-1.301l0.516-2.101L289.816,267.37z
	 M290.083,388.346l-0.654-0.204l-0.596,0.149l-0.137,0.164l0.295-0.025l0.282,0.015l0.354,0.209l0.44,0.237l0.42,0.822l0.061,0.315
	l0.141-0.562l-0.097-0.62L290.083,388.346z M289.611,390.711l-0.026,0.154l0.526-0.154l0.267-0.217l-0.252,0.043L289.611,390.711z
	 M343.323,346.208l0.435,0.343l0.499,0.313l0.137-0.567l0.125-0.26l-0.033-0.252l-0.14-0.434l-0.435-0.076l-0.604,0.136l-0.203-0.03
	l0.11-0.121l-0.316-0.098l-0.31,0.313L343.323,346.208z M260.726,136.222l0.368,0.091l0.188-0.124l-0.048-0.122l-0.184-0.047
	l-0.187-0.139l-0.269-0.107h-0.296l-0.187,0.122l0.1,0.094l0.17-0.02L260.726,136.222z M254.067,123.781l0.011-0.292l-0.246-0.155
	h-0.247l-0.282,0.139l-0.089,0.432l0.183,0.221l0.347-0.108L254.067,123.781z M259.623,142.724l0.103,0.34l0.206,0.202l-0.047,0.237
	l-0.203,0.306l-0.044,0.154l0.247,0.066h0.557l0.436-0.375l0.019-0.621l-0.345-0.448l-0.421-0.221l-0.371,0.03L259.623,142.724z
	 M257.907,138.009l-0.093,0.315l0.246,0.139l-0.013-0.153L257.907,138.009z M257.284,142.158l-0.187,0.099l-0.044,0.185l0.171-0.077
	L257.284,142.158z M261.872,156.981l0.155-0.083l0.047-0.138l-0.219-0.402l-0.468,0.03l0.27,0.175l0.169,0.264v0.108
	L261.872,156.981z M258.919,146.483l0.219-0.056l0.212-0.129l0.05-0.123l-0.262-0.067l-0.267,0.205L258.919,146.483z
	 M258.56,137.419l-0.156,0.047l-0.032,0.277l0.218-0.209l0.141,0.122l0.033,0.124l0.359-0.386l-0.222-0.19l-0.218,0.042l0.144,0.149
	l-0.049,0.072L258.56,137.419z M257.907,140.575l0.111,0.171l0.435-0.231l0.219-0.017l0.139,0.077l0.23,0.079l0.173-0.124
	l-0.173-0.114l-0.467-0.138l-0.449,0.099L257.907,140.575z M259.958,137.702l0.637-0.129l0.499,0.069l0.218-0.022l0.018-0.123
	l-0.204-0.186l-0.262-0.123h-0.252l-0.343,0.078l-0.337,0.216L259.958,137.702z M369.46,155.46l-0.883-1.788l-0.732,0.045
	l-0.653,0.284l-1.165,0.862l-1.117,0.674l-0.31,0.416l-0.328,0.983l-1.121-0.037l-0.408,1.619l0.129,1.95l0.483,0.944l0.449,4.807
	l0.262,1.105l0.763,1.29l1.864,5.692l0.793,1.63l-0.091-0.885l-0.391-0.966l-0.468-1.169l-0.103-0.697l0.044-0.562l0.25-1.074
	l0.325-7.293l0.45-2.256l1.635-3.713L369.46,155.46z M262.294,136.755l-0.513-0.22l-0.328,0.138l0.531,0.375l-0.064,0.279
	l0.078,0.293l-0.014,0.298l0.124,0.293l0.375,0.282l0.125-0.183l-0.035-0.176l-0.089-0.138l0.01-0.822L262.294,136.755z
	 M367.967,177.181l0.144,0.637l0.077,0.731h0.39l-0.154-0.546l-0.874-1.923L367.967,177.181z M261.534,151.831l0.182,0.128
	l0.139,0.061l0.05-0.153l0.03-0.217l-0.063-0.237l-0.837-0.071l-0.081,0.071l0.253,0.082L261.534,151.831z M260.569,150.001
	l-0.112-0.402l-0.108,0.123L260.569,150.001z M261.158,147.685l-0.204-0.221l-0.047,0.278l0.142,0.067L261.158,147.685z
	 M262.027,144.529l-0.403-0.098l-0.434,0.172l0.122,0.267l0.948-0.232L262.027,144.529z M260.675,145.469l-0.294-0.086l-0.311,0.138
	v0.216l0.189,0.109l-0.148,0.067l-0.197-0.015l-0.203,0.015l-0.018,0.195l0.763,0.287l-0.015,0.227l0.203,0.158h0.233l0.076-0.047
	l0.28-0.436l0.048-0.716l-0.359-0.152L260.675,145.469z M344.908,347.501l0.204,0.761l0.405,0.681l0.417,0.156l0.373-0.247
	l0.173-0.371l0.465-0.688l-0.154-0.623l-0.252-0.111l-0.648-0.141l-0.686,0.098L344.908,347.501z M373.567,353.876l-0.188,0.04
	l-0.077,0.219l-0.25,0.078l-0.155,0.222l0.064,0.015l0.386-0.083L373.567,353.876z M376.584,358.523l-0.158-0.792l-0.218,0.56
	l-0.385,0.308l-0.083,0.232l-0.122,0.066l-0.124,0.212l0.124,0.176l0.672-0.716L376.584,358.523z M391.341,336.303l-0.155,0.282
	l-0.841,3.354l-0.45,0.936l-0.715,0.575l0.155,0.061l0.126,0.015l0.073,0.078l0.751-0.698l0.711-1.231l0.499-1.321l0.203-1.258
	l0.093-0.247l0.094-0.466l-0.079-0.295L391.341,336.303z M392.975,322.744l-0.219,0.31l-0.296,0.262l-0.406,0.265v0.358l0.236,0.066
	l0.14,0.088l0.14,0.124l0.203,0.111l-0.559,0.527l-0.081,0.61l0.327,0.467l0.671,0.03l0.247-0.373l0.106-3.24h-0.353
	L392.975,322.744z M370.598,355.643l0.187-0.401l-0.358-0.222l-0.393-0.154l-0.212,0.27l0.171,0.245L370.598,355.643z
	 M367.32,358.553l-0.27,0.081v0.154l0.219,0.234l0.077,0.323l0.154,0.078l0.096,0.184l0.125-0.247v-0.416l-0.158-0.219
	L367.32,358.553z M352.464,350.406l0.189,0.358l0.092,0.84l0.093-0.048l0.204-0.361l0.108-0.497l-0.277-0.746l-0.329-0.361
	l-0.309,0.345l-0.064,0.441l0.106,0.073L352.464,350.406z M386.411,345.118l-1.417,2.068l-0.7,0.439l-1.677,0.414l-0.342,0.361
	l0.184,0.653l0.42,0.313l0.389,0.388l0.124,0.837l-0.499,1.218l-1.942,2.09l-1.01,2.524l-2.379-0.494l-0.325,1.021l0.743-0.295
	l0.605,0.222l0.301,0.542l-0.203,0.681l-0.409-0.199l-0.179-0.015l0.01,0.214l0.251,0.424l-0.468,0.698l-0.576,0.298l-1.121,0.156
	l0.187,0.744l-0.338,0.686l-1.306,1.367l-0.75,1.233l-0.402,0.295l-0.857,0.091l-0.281,0.338l-0.618,2.022l-0.608,0.252
	l-0.792,0.184l-0.498,0.308l0.277,0.638l1.029-0.01l1.195-1.18l1.945-2.552l1.635-1.415l0.401-0.593l0.483-1.354l0.343-0.625
	l0.589,0.176l0.562-0.328l4.292-4.226v-0.363l-0.236-0.883l0.653-1.415l1.727-2.476l1.538-1.984l0.267-0.58l0.108-0.454l0.261-0.678
	l0.343-0.668l0.359-0.376l0.219-0.124l0.198-0.169l0.171-0.222l0.173-0.328l-1.152-0.461L386.411,345.118z M368.759,368.647
	l-1.659,2.025l0.53-0.204l1.104-1.125l0.434-0.681l0.016-0.124l-0.048-0.207L368.759,368.647z M343.338,344.45l-0.31,0.156
	l-0.169,0.275l0.385,0.126l1.868,0.129l0.061-0.169l-0.842-0.141L343.338,344.45z M346.432,346.765l0.483-0.371l-0.124-0.222
	l-0.918-0.247l-0.293,0.096l-0.113,0.313l0.139,0.338l0.251,0.232L346.432,346.765z M399.892,265.098l-0.309-1.836l-0.705-0.913
	v-0.439l0.811-0.855v-1.581l-1.365-5.621l-0.344-0.605l-0.498-0.391l-1.164-0.335l-0.67-0.313v-0.361l0.623-0.293l0.62-0.083
	l0.547-0.184l0.371-0.638l-0.077-0.701l-0.996-2.141l-1.088-3.192l-1.276-2.575l-0.154-0.86l-0.344-0.93l-1.478-0.746l-0.343-0.767
	l-1.99-2.227l-0.417,0.068l-1.183,0.376l-0.451-0.171l-0.841-0.535l-0.368-0.101l-1.34-1.558l-0.311-0.499l0.702-0.045l0.45,0.237
	l0.326,0.333l0.354,0.288l1.183,0.608l2.103,0.54l0.604,0.529l0.467,1.183l-0.048-0.92l-7.775-18.796l-1.864-8.962l-16.875-37.41
	l-0.403-1.414l-1.552-3.157l-0.981-3.404l-0.482-1.214l-1.243-5.767l-0.203-2.443l-0.206-1.167l-1.629-3.172l0.402-0.37v-0.452
	l-0.589-1.446l-0.86-5.443l1.031,0.449l1.755,1.635l2.268,0.828l0.156,1.053l-0.402,1.212l-0.451,0.906l-0.389-0.376l-0.386,0.855
	l-0.204,1.15v1.183l0.219,0.885l0.746,0.859l0.947,0.446l3.36,0.576l0.466-0.01l0.635-0.204l0.034-0.207l-0.064-0.863l0.03-0.223
	l0.345-0.014l0.293,0.17l0.263,0.207l0.171,0.086l1.046-0.086l0.712,0.262l0.465,0.587l0.325,0.903l0.392,2.365l-0.048,2.365
	l-1.586,7.538l-0.112,10.25l0.499,2.505l1.57,4.723l3.113,5.662l0.498,2.065l1.57,1.841l0.214,0.416l0.17,0.545l1.279,2.474
	l-0.059-2.549l-4.235-6.504l-1.104-2.534l-0.169-0.946l-0.762-1.698l-1.122-6.044l-0.246-3.265l0.139-1.274l-0.391-0.407l0.376-0.76
	l0.033-5.832l0.171-0.313l0.417-0.199l0.406-0.454l0.281-0.499l0.124-0.323l0.48-0.093l0.933-1.094l0.653-1.26l-0.792-1.179
	l-1.275-3.893l-3.142-5.567l-2.786-3.947l-3.311-6.124l-7.105-11.306l-0.28-1.147l-0.465-1.079l-0.915-0.678l-0.671-0.688
	l0.296-1.053l-4.869-9.086l-3.437-9.517l-3.157-7.073l-2.333-4.354l-0.34-1.1l-0.232-1.231L339,90.968l-0.232-1.134l-1.601-2.829
	l-0.736-3.619l-0.523-0.535l-0.342-0.654l-0.294-2.981l-0.269-0.871l0.391-0.45l-0.53-0.238l-0.344-0.339l-0.091-0.453l0.213-0.571
	l-0.295-0.098l-0.48-0.247l-0.296-0.082l0.31-1.921l-1.784-6.982l-0.324-4.593l-0.237-1.16l-1.138-2.088l-0.464-1.101l-1.695-6.641
	l-0.063-2.505l0.359-2.703l-0.173-0.577l-0.376-0.406l-0.369-0.324l-0.154-0.344l0.173-1.959l-0.173-0.771l-0.28-0.565l-0.236-0.222
	l-0.261-0.137l-0.312-0.323l-0.252-0.485l-0.344-0.93l-0.325-0.484l-1.43-1.188l-0.029-0.247l-0.904-0.34l-0.401-0.859l-0.068-1.083
	l0.124-1.069l-0.042-1.375l0.107-0.513l0.466-0.206l0.499,0.195l0.406,0.478l0.264,0.607l0.092,0.616l0.03,1.41l0.139,1.111
	l0.434,0.857l0.843,0.623l-0.206-1.759l0.206-5.162l0.391-1.631l0.09-1.043l-0.277-0.446L326,27.481l-0.05-0.282l-0.089-0.284
	l-0.407-0.137l-0.401,0.06l-0.731,0.3l-0.327,0.061l-1.249-0.504l-0.042-0.478l-0.388-0.093l-0.949-0.262l-1.71,0.514l-0.498,0.01
	l-2.177-0.494l-0.531-0.237l-0.711-0.445l-0.376-0.017l-0.548,0.088l-0.572-0.062l-2.535-0.76l-0.775-0.344l-0.531-0.32l-0.343-0.33
	l-0.509-0.359l-0.75-0.201l-0.478-0.045l-0.472,0.061l-4.799-1.979l-0.72-0.401l-0.4-0.315l-0.777-0.492l-0.469-0.109l-0.406-0.016
	l-0.327,0.016l-0.73-0.046l-0.406,0.03l-0.45,0.125l-0.262,0.231l-0.139,0.246l-0.082,0.39v0.124l-0.059,0.411l-0.064,0.288
	l-0.169,0.283l-0.223,0.192l-0.474,0.085l-0.439-0.055l-0.545-0.17l-0.267,0.071l-0.155,0.216l-0.106,0.642l-0.074,0.344
	l-0.158,0.289l-0.625,0.621l-0.155,0.238l-0.107,0.266l-0.076,0.278l-0.034,0.592l0.174,1.512l-0.031,0.348l-0.063,0.392
	l-0.372,1.382l-0.033,0.344l0.048,0.716l0.107,0.479l0.17,0.565l0.247,0.54l1.012,1.435l0.231,0.463l0.082,0.298l0.064,0.607
	l-0.018,0.703l-0.716,4.041l-1.055,3.796l-0.14,0.792l-0.033,0.375l0.108,1.758l-0.018,0.374l-0.108,0.473l-0.203,0.237
	l-0.279,0.139l-1.445,0.401h-0.231l-0.267-0.032l-0.982-0.308l-0.353-0.061l-2.445,0.284l-0.498-0.038l-0.369-0.123l-0.285-0.185
	l-0.195-0.22l-0.301-0.526l-0.793-2.256l-0.107-0.542l-0.014-0.297l0.03-0.355l0.139-0.719l0.261-0.885l0.049-0.328l0.034-0.309
	l-0.034-0.278l-0.074-0.277l-0.252-0.541l-0.231-0.385l-1.242-1.613l-0.285-0.494l-0.059-0.252v-0.253l0.091-0.231l0.221-0.39
	l0.156-0.386v-0.19l-0.115-0.088l-2.172-0.139l-1.931-0.143l-2.471-0.171l-2.968-0.204l-3.441-0.231l-3.85-0.264l-4.25-0.299
	l-4.588-0.307l-4.894-0.344l-5.162-0.345l-5.396-0.375L237.026,32l-5.721-0.385l-5.831-0.405l-5.894-0.407l-5.926-0.4l-5.922-0.402
	l-5.86-0.412l-5.773-0.386l-5.643-0.391l-5.477-0.371l-5.255-0.375l-5.004-0.339l-4.726-0.314l-4.406-0.308l-4.024-0.277
	l-3.606-0.252l-3.172-0.222l-2.689-0.174l-2.164-0.149l-1.588-0.108l-0.978-0.061l-0.34-0.031l-1.665-0.108l-0.465,0.072
	l-2.346-2.498l-0.794-4.014l-0.064-2.582l-0.386-1.427l-0.717-1.447l-0.449-0.451l-0.422-1.838l-0.3-0.668l-0.321-0.327
	l-0.919-0.651l-0.232-0.28l-0.049-0.762l0.109-0.204H62.694l-8.364,0.02H1.74L1.399,9.522l0.09,2.864l-0.075,0.293l-1.092,2.366
	l-0.198,0.618L0.045,16.04L0,16.414l0.076,0.478l0.22,0.498l0.526,0.828l0.604,0.758l2.541,2.505l0.293,0.453l1.087,2.014
	l0.745,1.045l0.746,0.597l4.234,2.59l0.415,0.386l0.189,0.22l0.064,0.608l-0.05,0.898l-0.342,2.124L10.93,34.01l-0.905,1.621
	L9.827,36.16l-0.064,0.261l0.124,0.981l0.979,2.911l0.049,0.057l0.884,0.514l0.375,0.298l0.452,0.185l1.055-0.114l0.45,0.114
	l0.455,0.591l0.262,0.839l-0.031,0.73l-0.482,0.333l-1.274,0.288l-0.982,0.751l-1.539,1.867v0.417l0.638,0.453l0.033,0.605
	l-0.391,0.622l-0.606,0.468l-0.637,0.156l-1.309-0.031L7.63,49.702l0.924,0.323l0.898,0.468L7.506,50.76l-0.603,0.19l-0.469,0.32
	l-0.325,0.36l-0.358,0.313l-0.607,0.252v0.448l0.564-0.262l1.161-0.329l0.435,0.143l0.905-0.519l7.479-1.585l1.181-0.528
	l-0.188-1.106l0.53-0.185l1.342-0.201l0.451-0.253l0.199-0.591l-0.158-1.501l0.129-0.58l0.977-0.607l1.2-0.095l1.014-0.368
	l0.432-1.418l0.215,0.173l0.064,0.061l0.109,0.14h0.325l1.241-2.35l0.206-0.746l-0.231-1.074l-0.98-1.543l-0.236-0.746l-0.188-1.942
	l0.188-0.654l0.765-0.117l0.605,0.37l0.281,0.623l0.375,0.529l0.9,0.137l-0.107,0.277L26.2,36.517l-0.105,0.277l1.15,0.155
	l0.45,0.874l0.172,1.074l0.357,0.802l-0.3,0.845l-0.09,0.996l0.296,0.699l0.807-0.03l0.531-0.669l0.361-2.088l0.663-1.413
	l1.135-3.312l0.279-0.441l0.049-0.598l-0.499-1.079l1.122,0.652l0.577,1.261l0.539,0.811l0.999-0.659l0.296,0.371l0.064,0.195
	l0.044,0.278l-1.801,0.803l-0.765,0.657l-0.312,0.869l0.08,0.596l0.264,0.289l0.391,0.098h0.525l0.236,0.267l0.713,1.181l0.47,0.264
	l0.885,0.086l1.184,0.314l1.089,0.535l0.636,0.73l-0.079,0.651l-0.762-0.251l-0.978-0.539l-0.695-0.278l-3.424,2.807l-0.948,0.171
	l-2.88,0.03l-3.173,0.859l-1.971,0.93l-0.439,0.107l-0.326,0.268l-0.215,0.67l2.642-0.33l5.24-1.466l8.182-1.11l2.953-0.034
	l1.494-0.25l1.162-0.586l1.12,0.459l4.277-0.459l4.102,0.248l0.608-0.442l-0.026-0.931l0.074-0.261l1.226,0.185l0.654-0.201
	l0.656-0.889l0.465-0.202l0.686-0.057l0.686-0.225l0.62-0.315l0.542-0.417l0.114-0.446l-0.267-1.522l-0.033-0.719l0.44,0.792
	l0.523,0.579l0.499,0.093l0.36-0.673l0.386-0.31l0.514-0.123l1.26,0.032l-1.196,1.635l-0.236,0.899l0.719,0.776l0.931,0.123
	l0.73-0.447l0.652-0.591l0.745-0.299l1.03-0.117l2.286-0.612l1.009-0.123l2.239,0.391l1.056-0.083l0.858-0.776l0.639,1.628
	l0.686,0.582l0.932-0.204l1.367-0.685l-0.035,1.014l-0.384,0.293l-0.262,0.277l0.296,0.922l1.601,1.742l0.045,0.328l0.421,0.448
	l-0.063,0.839l-0.514,0.451l-0.933-0.71l-0.53-0.304l-2.52-0.724L74.1,43.59l-0.746-0.469l-0.726-0.091l-0.671,0.355l0.125,0.441
	l0.635,0.34l0.811,0.139l0.246,0.175l-0.156,0.385l-0.337,0.418l-0.327,0.237l-2.38-0.593l-0.579-0.514l-0.384-0.682l-0.22-0.699
	l-0.047,0.061L69.284,43l-0.252,0.032l-0.296,0.621l-0.277,0.838l-0.391,0.714l-0.65,0.315l-3.455-0.794l-4.228-0.138l-0.841-0.283
	L58.85,44.49v0.168l-0.063,0.098l1.367,0.901l6.328,0.729l9.049,2.487l6.689,2.057l6.112,3.198l4.507,2.241l6.329,4.648l1.244,0.314
	l-0.404-0.576l-0.325-0.39l0.418-0.11l0.669,0.7l0.41-0.87l-0.891-0.811l-0.963-0.603l-0.419-0.746l0.796-1.15l-0.656-0.653
	l-0.499-0.689l-0.588-0.54l-0.965-0.22l-1.137,0.19l-0.697,0.308H94.57l-0.823-0.683l-0.375-1.074l0.541-0.806l0.966-0.547
	l0.872-0.246l1.662-0.19l0.611-0.433l0.605-1.074l0.637,1.259l0.683,0.982l0.48,0.899l-0.016,1.04l0.627,0.204l0.371-0.484
	l0.373-0.667l0.591-0.344l0.733-0.264l0.777-0.468l0.604-0.088l0.249,0.819l0.933-0.633l1.275-2.195l0.513-0.484l0.53,0.308
	l0.468,0.719l0.669,1.466l-1.26-0.067l-2.058,2.442l-1.26-0.5l-0.809,0.125l-2.208,2.77l-1.118,0.649l0.424,0.596l0.369,0.416
	l0.439,0.33l1.833,0.9l0.497,0.405l0.401,0.7l0.909-0.248l1.209,0.483l1.152,0.763l0.712,0.616l0.113-0.309l0.139-0.246l0.091-0.267
	l0.016-0.416l0.98,0.39l0.81-0.266l0.825-0.423l0.992-0.076v0.375l-0.76,0.653l-0.202,0.93l0.371,0.544l0.948-0.462l0.207,0.9
	l-0.113,2.051l0.471,1.013l0.794,0.384l0.523-0.514l0.637-1.367l0.468-0.262l0.045,0.14l-0.014,0.313l0.218,0.262l0.42,0.046
	l0.858-0.046l0.367,0.185l0.237,0.652l-0.622,0.314l-0.84,0.232l-0.42,0.463l-0.84,0.483l-1.863-0.76l-1.853-1.367l-0.84-1.275
	l-0.915-0.889l-3.437-1.056l0.03-1.12l-3.204-0.569l-0.419,0.123l0.45,0.699l2.627,2.611l0.703,0.323l6.718,5.506l-1.045-0.025
	l-1.227-0.785l-1.088-1.111l-0.59-1.012h-0.407l0.125,0.553l0.137,0.407l0.204,0.361l0.262,0.371l1.545,1.341l6.032,2.829
	l0.869,0.709l0.949,0.982l0.748,1.105l0.311,1.122l0.371,0.874l1.683,2.19l0.497,1.304l-0.234,4.248l0.064,0.698l0.182,0.247
	l-0.369,0.56l-0.605,0.56l-0.499,0.281l-0.733-0.032l-0.402-0.248l-1.384-2.101l-0.578-1.275l-0.371-1.364l-0.137-1.382l0.137-4.169
	l-0.137-0.591l-0.799,1.337l0.159,3.104l1.008,5.073l0.484,0.871l0.872,0.914l1.038,0.484l2.006-0.902l1.168,0.032l1.229,0.216
	l1.134,0.032l6.139-2.007l2.133-0.092l4.186,0.451l0.696-0.405l1.062-1.62l1.336-0.195l0.913-1.541l0.702-0.393l0.809-0.308
	l0.681-0.56l0.702-0.33l0.856,0.406l-1.567,2.551l-0.237,0.493l0.246,1.066l0.594-0.207l0.763-0.668l0.71-0.386l1.031-0.22
	l0.842-0.499l1.243-0.967l0.807-0.246l1.417-0.187l0.653-0.36l2.656-2.549l1.588-1.13l2.564-0.721l2.179-1.789l2.875-1.676
	l0.589,0.621l0.859-0.074l0.991-0.341l1.029-0.206l2.175,0.206l1.978,0.652v0.37l-0.221,0.222l-0.499,0.652l1.497-0.905l0.686-1.403
	l-0.377-1.292l-1.634-0.57l-3.247-0.422l-0.496-0.307l-0.065-0.67l-0.188-0.581l-0.853-0.055l0.67-0.936l0.792,0.246l1.024,0.674
	l1.773,0.53l1.324,0.555l0.731,0.139l0.122-0.246l-1.057-1.275l-0.342-0.545l-0.155,0.22l-0.392,0.401l-0.139,0.238l-0.231-0.551
	l-0.155-0.308l0.139-0.484l0.076-0.139l-0.026-0.123l-0.188-0.499l0.386-0.446l0.203,0.184l0.14,0.093l0.343,0.17l-0.018-0.961
	l0.345-0.498l1.881-1.044l0.62-0.124l1.665,0.108l0.077-0.277l0.31-0.637l0.44-0.685l0.465-0.42l0.279-0.016l0.262,0.139l0.17,0.159
	l-0.03,0.088h1.088l0.31-0.139l0.3-0.555l0.338-0.123l0.316,0.057l0.136,0.154l0.092,0.159l0.155,0.077l0.408,0.355l0.231,0.734
	l0.277,0.53l0.532-0.22l1.087-0.7l3.795-0.329l1.691-0.709l1.031-0.098l3.858,3.172l4.956,3.146l2.367,1.024l1.261-0.262
	l1.121,1.276l0.647,0.539l0.92,0.221l0.652,0.36l2.302,1.754l0.497,0.59l0.453,0.76l1.976,2.087l0.45,1.307l0.232,0.323l0.499,0.3
	l0.498,0.37l0.218,0.627l0.277,1.439l0.043,0.622l0.327,1.013l0.785,1.166l0.948,1.055l0.851,0.734l1.805,0.824l0.358,0.284
	l0.623,0.606l0.45,0.339l1.072,0.437l1.038,0.171l0.907,0.277l0.62,0.76l0.216,1.258l-0.074,1.399l-0.343,1.204l-0.557,0.683
	l0.31,0.59l0.247,0.871l0.064,0.858l-0.267,0.555l1.336,0.997l0.69,0.339l0.523-0.077l2.673,3.171l1.449,1.169l1.306-0.217
	l1.088,0.92l0.907,0.977l1.613,2.21l0.905,1.784l0.139,0.098l0.076,1.26l0.126,0.601l0.185,0.391l0.497,0.544l0.842,0.531l0.947,0.4
	l0.811,0.17l0.747,0.329l0.48,0.76l0.359,0.844l0.384,0.528l-0.604,0.572l-0.034,0.55l0.41,0.401l0.761,0.153l0.276,0.33
	l0.049,0.698l0.229,0.701l0.89,0.323l0.686-0.03l0.354-0.064l0.932-0.354l0.784-0.137l1.487-0.038l0.606-0.199l0.934,0.59
	l1.165,0.483l1.212,0.044l1.046-0.743l0.229,0.34l0.613,0.591l0.231,0.328l0.416-0.282l1.062-0.529v1.204l0.125,0.929l0.419,0.693
	l0.905,0.484l-1.122,0.689l0.588,1.023l1.962,1.56l-0.047,0.261v1.805l-0.156,0.591l-0.262,0.622l0.297,0.482l0.618,0.279
	l0.623,0.061l-0.343,1.199l0.279,1.043l2.209,2.751l0.374,0.308l0.401,0.154l1.012,0.143l0.361,0.153l0.556,0.768l0.141,0.868
	l-0.387,2.894l0.049,0.637l0.384,1.774l-1.306-1.65l-0.837-0.483l-0.736,0.913l0.144,0.531l1.041,1.355l0.265,0.793l0.171,0.216
	h0.358l0.369,0.099l0.171,0.487v2.061l0.113,0.587l0.154,0.422l-0.032,0.407l-0.432,0.586l-0.188,0.438l0.033,0.529l0.155,0.513
	l0.197,0.402l-0.524,1.04l-0.187,5.135l-0.55,1.789l-0.105,0.7l-0.067,3.218l-1.145,2.006l0.057,0.436v0.37l-0.617,0.706
	l-1.899,5.017l0.377-0.122l0.153-0.088l0.203-0.192l0.108,0.777l-0.434,0.844l-1.122,1.661l-0.405,1.676l-0.328,0.801l-0.695,0.777
	l-0.499-0.329l-0.237,0.792l-0.06,1.168l0.034,0.807l0.279,1.495l0.311,0.901l0.498,0.857l-0.484,0.525l-0.139,0.73l-0.078,1.575
	l-1.152,5.428l-1.759,4.771l-0.263-0.854l0.11-1.044l0.391-1.012l0.498-0.777l-0.547,0.524l-0.588,0.842l-0.469,1.014l-0.203,1.091
	l0.106,1.151l0.501,1.691l0.111,0.792l0.73,1.383l3.221,3.173l0.726,1.949l0.158,0.976l0.422,1.321l0.59,1.059l0.668,0.141
	l0.044-0.746l-0.361-1.294l-0.775-2.035l-0.623-1.074l-3.138-3.419l-0.419-0.827l0.198-0.821l0.997,0.992l2.051,1.633l0.933,1.089
	l0.948,1.43l0.638,0.401l1.137,0.149l0.095,0.26l-0.064,1.294l0.121,0.499l0.296,0.262l0.359,0.106h0.966l0.855-0.358l0.594-0.87
	l0.185-1.074l-0.376-0.961l0.653-1.826l0.066-0.386l0.152-0.308l0.716-0.906l0.217-0.591v-0.709l-0.276-1.251l-0.078-0.697
	l1.673-1.014l0.47-0.371l-2.253,0.284l-2.026-0.797l-1.957-1.137l-2.02-0.821l0.835-0.999l2.431-0.678l0.653-0.751h-1.947
	l-0.482-0.124l-0.018-0.282l0.31-0.431l0.034-0.267l0.262-0.649l0.065-0.471l-0.091-0.417l-0.458-0.934l-0.137-0.516l2.133,2.073
	l-0.016-0.623l0.016-0.189h0.327l0.435,0.637l0.651,0.55l1.462,0.808v0.431l-1.086,0.406v0.453l1.659,0.026l1.384,0.303l0.938,0.761
	l0.337,1.52l-0.337,2.858l0.074,1.483l0.653,1.135l0.469,0.125l1.862,0.077l0.251-0.593l-0.095-0.606l-0.329-0.838l0.066-2.179
	l0.218-0.947l0.467-0.703l1.089-0.623l0.917,0.097l0.638,0.715l0.483,2.459l1.039,2.473l0.154,1.352l-0.432,0.905l-1.708,1.914
	l-0.376,0.6l-1.474,1.034l-0.253,0.401l-0.826,1.652l-0.367,0.247l-0.483,0.151l-0.407,0.31l-0.187,0.688l-0.156,0.461l-1.459,1.168
	l-0.702,1.215l-0.374,1.228l-0.508,1.069l-1.138,0.759l0.217,0.565l0.14,0.217l-0.624,0.731l0.672-0.292l0.841-0.124l-0.328,0.714
	l-0.719,0.53l-1.537,0.416l-0.826,0.434l0.765,0.159l0.638,0.237l0.574,0.353l0.543,0.469l-1.117,0.076l-1.369-0.696l-1.278-0.393
	l-0.914,1.014l0.328,0.371l0.358,0.267l0.385,0.063l0.377-0.247h0.327l0.033,0.585l-0.097,0.527l-0.247,0.484l-0.375,0.403
	l-0.59-0.588l-1.383-0.653l-0.547-0.406l-0.277-0.461l-0.809-1.949h-0.358l0.187,0.936l1.012,2.673l0.605,0.86l0.827,0.351
	l1.956,0.343l2.035,1.528l0.999,0.522l0.744,0.777l0.58,2.85l1.102,2.254l0.059,1.478h-0.356l-0.17-0.361l-0.172-0.169l-0.188-0.108
	l-0.232-0.199l0.014,1.276l0.653,1.15l0.872,1.165l0.624,1.276h0.386v-0.807l0.545,0.386l0.359,0.638l0.188,0.837v0.999
	l-0.285-0.297l-0.187-0.293l-0.246-0.661l0.293,1.329l1.246,2.441l0.528,2.088l4.775,9.517l0.344,1.16l0.214,0.222l0.266,0.202
	l0.637,0.383l-0.25-0.898l-0.695-1.384l-0.173-0.92l1.431,1.558l1.538,5.023l1.567,1.069l0.483,0.015l0.376,0.081l0.747,0.262
	l0.416,0.265l0.498,0.482l0.361,0.098l0.311-0.066l0.154-0.139l0.092-0.126l0.169-0.06l0.253,0.124l0.498,0.585l0.171,0.113
	l0.328-0.219l0.386-0.434l0.31-0.406l0.049-0.217l0.45,0.64l0.187,1.662l0.467-0.25l0.345-0.777l-0.052-0.872l-0.465-2.592
	l-0.842-2.164l-0.277-0.454l-0.325-0.373l-0.731-1.818l-0.562-0.651l-0.386,0.431l-0.58-0.524l-1.519-1.911l-0.624-1.092
	l-0.152-0.479l1.087,0.542l0.588,0.653l1.046,1.788l0.777,0.207l0.869-0.459l0.53-0.169l-0.187,1.014l0.963,1.119l0.574,0.499
	l0.25-0.192l0.314-0.552l0.654-0.098l0.637-0.207l0.229-0.93l1.215,0.33l0.948-0.192l0.904-0.371l2.141-0.446l1.137-1.089
	l0.889-0.282l-0.654,1.803l-0.294,0.419l-0.497,0.265l-1.156,0.247l-2.621,1.573l-1.03,0.792l-0.074,0.761l1.069,0.905l0.716,0.356
	l0.388,0.542l0.125,1.437l-0.108,1.319l-1.291,6.813l-0.033,1.316l0.247,0.903l0.923,2.085l0.262,1.057l-0.076,1.367l-0.269,0.862
	l-0.092,0.709l0.436,1.026l0.823,0.915l0.654-0.015l0.731-0.449l1.053-0.451v0.827l0.513-0.25l1.228-0.361l0.424-0.217l0.214-0.31
	l1.587-4.551l0.577-0.941l1.725-1.846l1.014-0.845l0.867-0.353l1-0.146l1.257-0.744l0.778-0.31l-0.223,0.706l-0.276,0.525
	l-0.405,0.421l-0.528,0.386l-0.545-0.308l-0.593,0.25l-0.465,0.509l-0.203,0.545l-2.298,2.29l-0.605,0.759l0.213,1.483l-0.988,1.594
	l-1.406,1.374l-1.43,0.966l-0.231,0.275l-0.236,0.222l-0.403,0.088l-0.374-0.171l-0.358-0.653l-0.216-0.015l-0.31,0.53l-0.141,0.857
	v0.865l0.125,0.577l0.327-0.431l0.295,0.293l0.155,0.061l0.702-0.353l2.872,1.599h1.078l0.246,0.151l0.235,0.282l0.356,0.156
	l0.251-0.156l0.216-0.507l-0.199-1.465l-0.016-0.857l0.362,0.898l1.053,1.856l0.375,0.867l0.262,1.155l0.092,3.639h-0.354v-0.386
	h-0.358l0.187,0.956l1.57,2.88l0.034,0.184l0.01,0.391l-0.32,2.005l0.449,4.572l0.947,4.186h0.387l-0.032-0.638l0.016-0.623
	l0.129-0.575l0.213-0.542l0.9,4.186l0.84,1.485l1.497,1.173l-0.45,0.54l0.14,0.716l0.498,0.673l0.572,0.449l0.499,0.121l1.195-0.154
	l0.777,0.033l-0.172,0.681l-0.402,0.784l-0.513,0.646l-0.484,0.283l-0.589-0.308l-0.588-0.61l-0.623-0.386l-0.734,0.305l0.343,1.7
	l0.203,0.446l0.514,0.613l0.198,0.124l0.374,0.061h0.329l-0.031-0.406l0.294-0.262l0.121-0.129l0.188-0.431l0.173-0.328l0.359,0.499
	l0.529,0.295l0.623,0.111l0.653-0.146l0.508-0.323l0.391-0.809l0.533-0.421l0.292,0.686l0.508,0.466l0.598,0.222l0.435-0.144
	l0.088,0.373l0.127,0.139v0.171l-0.216,0.436l0.431-0.174l0.605-0.509l0.221-0.113l0.467,0.129l0.716,0.547l1.088,0.461l0.608,0.59
	l0.556,0.252l0.702-0.746l0.545,0.494l0.682,0.951l0.608,0.509l0.651,0.272l1.543,0.277l0.682,0.277l1.258,0.9l1.26,1.122
	l0.997,1.543l0.406,0.449l-1.387,1.056l-0.485,0.638l0.657,0.292l0.236,0.328l0.638,1.553l0.342,0.499l0.453,0.081l1.771,0.124
	l0.059,1.054l0.187,0.653l0.436,0.469l-0.015,0.807l1.102,2.005l0.547,2.615l0.203,0.557l0.622,0.252l1.193-0.292l0.499,0.245
	l0.083,0.406l-0.206,0.449l-0.311,0.371l-0.978,0.651l0.586,1.157l1.711,1.914l0.75,2.234l0.058,0.56l0.284,1.2l0.06,0.62
	l0.407,0.608l2.422,1.944l2.01,0.386l0.292,0.139l0.919,0.562l1.847,0.313l0.965,0.514l2.989,3.172l0.354,1.021l-0.523,1.261
	l-0.923,0.688l-1.131,0.308l-1.151-0.03l-0.934-0.386v-0.361l0.296-0.093l0.498-0.252l0.295-0.086v-0.398l-4.031-1.705l-0.681-0.484
	l-0.169-0.03l-0.923-1.773l-0.356-0.469l-0.529-0.524l-0.622-0.424l-0.638-0.121l0.328-0.842l-0.981,0.777l-0.869,1.911
	l-0.564,2.272l-0.073,1.811l0.607,1.773l0.867,1.813l2.474,2.383l0.822,0.184l2.459-0.59l2.118-0.202l1.71-0.373l2.017-0.033
	l0.983-0.184l1.209-1.321l0.219-0.083l1.48-0.956l0.777,0.741l1.571,0.328l-0.188,0.469v0.431l0.464,0.174l0.247,0.045l0.173-0.166
	l0.189-0.484l0.276,0.323l0.285,0.192l0.262,0.136l0.264,0.171l0.063-0.267l0.089-0.171l0.113-0.151l0.124-0.232l0.516,0.62
	l0.835,0.292l0.889,0.033l0.64-0.124l1.039-0.999l0.686-0.308l0.791,0.484h0.328l0.31-0.484l-0.032-0.361l-0.187-0.376l-0.092-0.537
	l0.296-0.192l1.928-0.416l-0.096,0.247l-0.059,0.03l-0.081-0.015l-0.156,0.124l0.826,0.292l0.468-0.847l0.376-1.276l0.508-0.935
	l0.807-0.267l2.118-0.028l0.686-0.096l0.198,0.376l0.063,0.174l0.067,0.24l-0.467,0.101l-0.253,0.124l-0.14,0.23L374,352.209
	l0.361,0.184l0.293,0.247l0.237,0.33l0.173,0.391l0.899-0.575l1.039,0.136l0.794,0.731l0.173,1.276h0.389l-0.173-1.168l-0.635-0.915
	l-0.949-0.529l-1.151-0.108l0.652-0.746l1.048-0.497l0.82-0.063v0.875l0.716,0.262l1.04,1.493l0.793,0.656l0.016-0.55l-0.672-0.653
	l-0.638-0.86l0.148-1.145l0.059-0.638l0.9-1.029l0.187-0.525l0.095-0.497l0.247-0.436l2.38-2.711l1.913-1.677l0.08-0.714
	l-0.39-0.461l-0.672-0.376l-0.415-0.469l0.385-1.084l0.424-0.812l-0.206-0.31l-0.373-0.237l-0.229-0.328l-0.173-1.243l0.091-1.069
	l0.458-1.054l0.864-1.22l0.33-0.996l0.045-2.844l0.188-1.12l1.539-1.508l1.087-2.486l0.091-1.4l0.189-0.56l0.577-0.514l0.509-0.093
	h0.513l0.547-0.222l0.777-1.099l0.034-2.436l0.662-1.548l0.329-2.09l1.895-2.479l0.425-0.03l0.171,0.774l0.026,1.513l-0.352,2.627
	v2.426h0.352l0.84-17.107l-0.84-1.304v-0.436l0.874-0.668l0.499-1.745l1.318-8.616l-0.171-1.284l0.316-0.86l0.09-0.978l-0.047-2.005
	l0.112-0.888l0.527-1.775l0.43-7.941l0.826-0.113l0.296-1.692L399.892,265.098z M368.156,358.445l0.078-0.56l-0.218-0.714
	l-0.033-0.116l-0.197,0.176l-0.065,0.6l0.203,0.628L368.156,358.445z M350.167,350.502l0.327-0.25l0.353-0.063l-0.325-0.421
	l-0.295-0.045l-0.016,0.091l0.047,0.108l0.034,0.061l-0.237,0.285L350.167,350.502z M351.131,352.144l0.49,0.144h0.082l-0.063-0.439
	l0.407-0.194l0.246-0.159l-0.106-0.093l0.03-0.222l-0.358-0.106l-0.298-0.03l0.141,0.184l-0.141,0.267L351.131,352.144z
	 M263.972,215.619l-0.141,0.187l-0.261,0.499l0.972-0.419l-0.368-0.219L263.972,215.619z M264.628,215.932l0.087-0.111l-0.173,0.066
	L264.628,215.932z M250.285,386.657l0.064-0.098l-0.03-0.217L250.285,386.657z M247.661,386.296l0.229-0.156l-0.166-0.174
	L247.661,386.296z M250.678,386.432v-0.204l-0.067,0.164L250.678,386.432z M251.44,385.242v-0.053l-0.11,0.066l0.058,0.076
	l0.016,0.03l0.081-0.03l-0.03-0.111L251.44,385.242z M250.849,386.657l0.092-0.139l-0.108-0.023L250.849,386.657z"/>
<circle fill="#4DFFB6" cx="258.771" cy="70.344" r="5.16"/>
<circle fill="#4DFFB6" cx="266.931" cy="119.833" r="5.16"/>
<circle fill="#4DFFB6" cx="301.167" cy="256.5" r="5.16"/>
</svg>
