<svg version="1.1" class="line-up" xmlns="http://www.w3.org/2000/svg" xmlns:xlink="http://www.w3.org/1999/xlink" viewBox="0 0 400 188" enable-background="new 0 0 400 188" xml:space="preserve">
<g>
	<g>
		<g>
			<path fill="#DFDFDE" d="M285.49,86.253c-1.06-5.922-2.12-11.844-3.179-17.764c-0.037-0.5-0.074-0.998-0.111-1.498
				c2.821-7.866,4.351-8.374,13.55-4.492c0.904,1.03,3.412,0.396,3.105,2.443c-0.233,1.563-1.72,1.323-2.926,0.733
				c-2.513-0.181-4.396,0.874-5.773,2.931c2.286,6.341,0.565,13.472,3.893,19.61c0.379,1.119,0.608,2.266,0.742,3.439
				c0.789,6.734,2.621,13.316,2.936,20.12c-0.037,1.201-0.255,2.37-0.616,3.513c-6.765,12.694-15.415,22.87-31.295,23.442
				c-2.278,0.082-4.379,1.008-6.358,2.115c-4.366,2.584-5.021,7.226-6.341,11.496c-1.294,2.326,0.079,6.211-4.01,6.903
				c-0.514-0.579-1.027-1.156-1.541-1.735c-5.903-3.952,0.168-8.75-0.925-13.14c-2.126-1.486-3.451,1.619-5.41,1.029
				c-2.176,1.554-2.649,3.902-2.96,6.327c1.109,4.849-3.995,7.284-4.47,11.522c-0.893,4.659-2.451,9.083-4.648,13.288
				c-1.29,1.661-1.56,4.414-4.534,4.292c-3.452-2.079-2.326-4.947-1.284-7.752c0.938-2.525,1.818-5.074,2.912-7.534
				c0.745-1.616,1.176-3.338,1.6-5.06c2.379-6.016,3.246-12.647,7.345-17.986c0.792-1.032,0.583-2.389-0.209-3.52
				c-2.912-3.222-7.347-1.171-10.634-3.075c-4.022-3.232-8.491-4.72-13.755-4.761c-5.668-0.045-10.144-3.075-12.212-8.357
				c-1.938-4.954,1.38-8.448,4.705-11.634c0.917-0.41-0.34-0.345,0.617-0.396c12.387-0.667,22.504-7.795,33.746-11.704
				c10.453-3.635,20.336-1.032,29.841,3.76c0.448,0.226,0.871,0.508,1.32,0.732c4.591,2.296,9.143,7.277,14.432,3.817
				c5.604-3.666,2.698-10.048,2.403-15.404C285.41,90.053,286.583,88.166,285.49,86.253z"/>
			<path fill="#DFDFDE" d="M252.139,181.724c-1.027-5.968-2.053-11.936-3.081-17.905c0.015-1.526,0.031-3.051,0.048-4.577
				c2.413-1.928-0.227-5.843,2.937-7.477c1.661,1.532,1.76,3.584,1.901,5.626c0.49,2.771-1.17,5.38-0.607,8.162
				c0.485,3.158,0.842,6.344,1.484,9.469c1.182,5.753,4.116,9.479,10.704,8.531C260.495,187.104,255.991,186.801,252.139,181.724z"
				/>
			<path fill="#DFDFDE" d="M227.89,175.995c-1.281,6.081,3.547,6.316,7.274,7.605c-4.294,4.28-7.257,1.024-10.294-1.817
				c-0.161-0.433-0.183-0.874-0.065-1.321C225.834,178.972,226.861,177.483,227.89,175.995z"/>
		</g>
	</g>
	<g>
		<g>
			<path fill="#DFDFDE" d="M330.257,174.884c-0.048-1.57-0.099-3.311-1.772-3.932c-0.813-0.301-1.442,0.777-1.53,1.76
				c-0.047,1.948-0.412,3.722-2.48,4.573c-1.506-0.472-1.694-1.767-1.904-3.044c-0.531-2.035,0.979-4.549-1.458-6.126
				c-3.033,0.848-5.916,1.198-7.707-2.225c-1.123-7.156,3.234-11.452,8.072-15.505c4.389-3.137,9.254-2.96,14.212-1.985
				c1.726,0.34,3.37,1.066,5.131,1.258c4.32,0.47,7.637-0.687,7.04-5.025c-0.362-2.623-2.762-5.591-1.811-8.22
				c1.43-3.953,3.508-4.306,6.72-1.118c2.068,2.77,2.068,2.77-1.358,3.834c-1.625,3.369,1.383,6.538,2.212,9.588
				c0.648,2.78-0.763,11.205-2.567,13.312c-4.026,4.704-7.092,3.777-13.21,5.999c-1.264,0.724-2.096,1.827-2.698,3.129
				c-1.165,1.859-1.339,4.047-2.012,6.072c-0.396,0.713-0.939,1.178-1.816,1.087C330.268,177.384,329.767,176.287,330.257,174.884z"
				/>
			<path fill="#DFDFDE" d="M324.811,176.998c0.616,2.477-3.701,5.678,1.106,7.541c-0.364,2.487-2.043,0.829-3.144,0.997
				c-0.324-0.35-0.646-0.699-0.97-1.05c-2.216-3.882-1.57-7.46,1.949-10.791C324.267,174.745,323.573,176.182,324.811,176.998z"/>
			<path fill="#DFDFDE" d="M331.496,178.065c0.349-0.43,0.697-0.86,1.046-1.287c3.344,1.579,3.079,5.994,6.13,7.805
				c0.055,0.304,0.083,0.61,0.085,0.918c-2.227,0.554-4.374,0.616-6.25-1.009C331.31,182.483,329.892,180.512,331.496,178.065z"/>
		</g>
	</g>
	<path fill="#DFDFDE" d="M400,178.46c-4.973-3.259-10.278,0.25-14.217,1.835c-1.731,0.696-1.025,3.052,0.873,4.153
		c-1.026,2.263-2.106,1.237-3.415,0.185c-4.738-3.81-4.748-3.769-6.732,1.22c-0.075,0.186-1.219-0.053-1.862-0.094
		c-0.299-1.908,0.803-4.082-1.077-5.693c-0.216-3.726-0.878-7.722,3.318-9.819c3.862-1.928,7.684-1.887,10.698,1.74
		c1.009,1.214,1.932,1.583,3.342,0.845C396.329,170.013,395.416,175.158,400,178.46z"/>
	<g>
		<g>
			<path fill="#DFDFDE" d="M109.714,37.772c-4.959-0.765-4.88,26.464,0.302,23.63c8.075-4.415,15.534-3.054,37.052-4.955
				c4.115-0.364,9.112-17.172,5.268-15.662C136.046,47.19,127.597,40.53,109.714,37.772z"/>
			<path fill="#DFDFDE" d="M223.27,24.894c-2.79-1.903-3.835-4.459-7.242-5.635c-1.186-0.411-2.15-1.571-3.609-1.016l-0.081-0.031
				c0.06-0.616-0.304-0.79-0.83-0.795c-2.386-0.78-4.293-2.868-7.068-2.582c-0.825-0.578-1.864-1.009-1.028-2.371
				c0.361-0.588,1.871-1.276,0.11-2.034c-5.384-8.167-6.056-11.465-18.446-10.119c-3.835,0.417-7.744-0.33-11.644,0.45
				c-1.419,0.284-2.697,0.754-4.019,1.216c-4.969,1.658-8.946,4.645-11.021,9.481c-0.849,1.981-3.003,1.647-3.939,3.563
				c-2.789,5.705-4.507,11.563-5.166,17.898c-0.759,7.308-3.047,9.319-10.452,10.434c0.813,1.975,2.361,2.299,4.032,1.76
				c1.808-0.582,3.595-1.354,5.221-2.327c1.024-0.613,2.125-1.981,2.935-0.591c0.68,1.167,0.388,3.339-1.17,3.87
				c-1.437,0.49-1.221,1.141-1.113,2.09c0.44,3.833-3.119,6.257-6.858,5.158c-1.256-0.37-2.896,0.686-4.575,0.084
				c-4.462-1.598-4.823-2.817-1.267-6.204c-3.247-1.456-5.999,0.214-8.672,1.238c-0.755,0.289-2.098,1.517-1.612,3.202
				c0.947,3.277-0.409,5.355-4.076,6.54c-0.403-1.817,1.172-4.446-2.092-5.085l0.055,0.06c0.037-1.966-1.273-2.245-2.808-2.239
				c-0.732-1.886-2.332-1.399-3.761-1.38l0.031,0.037c1.056-1.562,2.946-1.224,4.917-1.798c-3.308-1.264-6.074,1.208-9.28-0.29
				c2.034-0.959,5.033-2.07,3.27-4.242c-1.273-1.566,0.833-5.396-3.172-5.144c5.739,0.607,11.478,1.214,17.295,1.83
				c-0.629-0.996-1.551-1.496-2.593-1.603c-5.747-0.59-11.536-1.771-17.234-1.438c-3.733,0.218-7.607,1.32-11.403,2.106
				c-0.563,0.116-1.202,0.65-1.636,0.498c-5.453-1.892-10.517,0.759-15.739,1.352c-2.12,0.24-3.754,2.005-5.843,2.814
				c-9.069,3.515-17.389,8.82-26.873,11.405c-2.188,0.595-4.371,1.198-6.87,1.884c2.644,2.446,1.365,3.194-1.152,3.358
				c-0.912,0.06-1.978-0.371-2.494,0.848c-3.702,1.702-7.75,2.17-11.628,3.245c-5.722,1.588-11.444,3.175-17.166,4.764
				C3.012,69.849,1.839,71.989,0,74.032c4.478,0.38,8.364-1.016,12.348-1.449c5.417-0.59,10.543,0.355,15.373,2.897
				c2.498,1.314,4.792,3.414,7.985,2.142c1.771,0.264,3.09,1.283,3.896,2.777c3.164,5.859,9.524,7.729,14.367,11.47
				c0.887,0.685,2.773,0.079,4.198,0.07c0.854,0.861,1.971,0.966,3.087,1.078c1.232,1.273,2.425,0.192,3.631-0.058
				c0.929,1.771,0.893,2.911-0.61,4.851c-2.02,2.61-2.701,6.254-3.958,9.455c-4.937,5.38-10.629,10-14.127,16.743
				c-4.692,9.049-8.059,18.455-10.04,28.41c-0.534,2.676-2.947,4.266-4.469,6.104c-2.692,3.25-3.101,7.39-5.553,10.606
				c-1.324,1.737-2.05,3.933-3.045,5.921c-0.107,0.818-0.504,1.739-0.258,2.433c0.446,1.256-1.236,3.354,0.639,3.648
				c1.978,0.312,3.226-1.478,3.67-3.488c0.376-0.218,0.752-0.435,1.128-0.654c0.825,2.873-0.602,6.082,1.399,8.813
				c0.48,0.652-0.735,2.317,1.295,2.17c1.663-0.119,1.569-1.331,1.705-2.474c0.082-0.7,0.292-1.386,0.444-2.076
				c0.471-2.931,1.06-5.848,1.377-8.795c0.248-2.305,1.21-0.06,1.729-0.385c-0.894,2.173-1.529,4.095,1.842,4.805
				c2.379,0.501,2.167,2.721,1.927,4.864c2.9-2.446,2.845-4.566,0.108-8.766c-0.11-3.298,0.626-6.666-0.861-9.843
				c0.217-2.642,0.433-5.283,0.648-7.925c1.339-0.837,0.064-2.331,0.833-3.311c1.17-3.446,2.34-6.889,3.512-10.333
				c1.644-0.452,1.369-1.716,1.235-2.918l0.295-0.138l0.015,0.119c2.057-0.899,1.975-3.141,2.837-4.742
				c2.468-4.587,5.009-9.188,7.776-13.536c5.396-8.48,12.631-15.316,22.045-19.414c2.955-1.288,5.98,0.937,9.06,0.11
				c1.466-0.394,3.103-0.192,4.663-0.186c0.909,0.003,2.052-0.929,2.67,0.069c0.658,1.062,0.156,2.318-0.46,3.381
				c-1.755,3.03-3.867,5.824-6.662,7.915c-1.947,1.456-3.615,3.154-5.369,4.79c-0.046,0.043-0.201-0.029-0.304-0.047
				c0.078,0.087,0.153,0.174,0.229,0.261c-0.611,0.804-1.224,1.606-1.837,2.408c-1.372,0.918-1.705,1.902-0.89,3.556
				c1.244,2.522,3.098,4.399,5.233,6.092c0.211,1.251,0.908,1.991,2.207,2.097c3.853,4.82,9.109,8.356,12.465,13.632
				c0.575,0.902,1.164,1.793,1.746,2.691c-0.063,0.712-0.114,1.424-0.186,2.135c-0.317,3.111,0.472,5.342,4.172,5.273
				c0.45,1.446,0.278,3.078,1.616,4.252c0.993,0.874,0.5,1.789-0.157,2.822c-1.141,1.796-0.868,3.126,1.045,4.742
				c3.259,2.755,7.062,4.686,10.252,7.477c0.385,0.337,0.776,0.73,1.185,0.385c0.304-0.257,0.433-0.822,0.477-1.267
				c0.151-1.523-0.525-2.789-1.381-3.978c0.192-0.425,0.387-0.851,0.579-1.277c1.497,0.534,1.628-0.472,1.583-1.494
				c-0.075-1.702-0.67-3.326-1.742-4.57c-2.26-2.625-3.569-5.6-3.902-9.002c-0.108-1.107-0.616-1.707-1.588-2.046
				c-1.183-4.436-4.959-6.868-7.928-9.798c-5.1-5.034-9.387-10.889-15.212-15.191c-0.635-3.858,0.68-6.484,3.681-9.337
				c5.931-5.64,13.545-8.425,20.037-13.043c1.065-0.757,2.73-4.449,5.283-0.759c0.506,0.732,3.232-1.285,4.243-2.623
				c1.814-2.399,3.881-1.455,4.772,0.01c1.663,2.735,4.362,3.462,6.79,4.81c1.169,1.962,3.241,0.912,4.839,1.238
				c0.735,0.15,0.365-1.299-0.179-1.947c-1.531-1.823-3.154-3.54-5.415-4.483c-0.409-0.5-0.819-1.001-1.229-1.502
				c-0.402-0.972-0.736-1.933,0.427-2.653c1.62,2.402,3.458-0.652,5.163,0.547c0.052-2.272-2.368-2.26-2.776-3.978
				c2.217-1.239,4.559-2.415,6.002-4.721c3.918,5.43,6.323,11.456,10.792,16.326c1.007-1.459,0.457-2.786,0.567-4.029
				c0.325-1.793-0.402-3.315-1.247-4.807c-0.022-0.765-0.582-1.824,0.749-1.974c1.974-0.221,1.78-2.258,1.613-2.917
				c-0.345-1.365-1.612-1.481-2.787-0.343c-0.529,0.512-1.298,0.183-1.32-0.507c-0.082-2.535-1.676-4.55-2.403-6.858
				c-0.961-3.047,0.626-3.201,2.466-3.286c5.915-0.278,10.021-4.006,14.254-7.381c3.515-2.802,6.277-6.312,8.425-10.311
				c2.202-4.095,4.095-8.283,4.82-12.912c0.56-3.589,2.449-6.698,3.719-10.017c0.846-2.213,3.745-1.029,5.496-2.016
				c4.849,0.371,8.66,4.125,13.606,4.18c4.308,1.809,8.578,3.733,13.285,4.304c2.556,0.582,5.043,0.512,7.384-0.83
				c0.385-0.629,2.447-1.193,0.192-1.953c-1.987-0.669-4.06-1.071-6.095-1.592l0.075,0.029c-1.66-1.479-3.318-2.956-5.673-5.053
				c3.702,0.028,6.288,2.022,9.169,1.418c1.146,0.494,2.679-0.111,3.502,1.377c0.431,0.78,0.201,2.89,1.681,1.947
				c1.238-0.79,2.771-2.02,2.386-4.292c-0.729-4.276-1.191-8.591-2.477-12.757L223.27,24.894z M224.767,44.193l0.224-0.032
				l-0.141-0.183L224.767,44.193z"/>
		</g>
	</g>
	<text transform="matrix(1 0 0 1 382.1784 162.7987)" fill="#FFFFFF" class="svg-font" font-size="9.2545">Kiwi</text>
	<text transform="matrix(1 0 0 1 317.6161 129.111)" fill="#FFFFFF" class="svg-font" font-size="11.311">Turkey</text>
	<text transform="matrix(1 0 0 1 252.444 53.5487)" fill="#FFFFFF" class="svg-font" font-size="13.3676">Ostrich</text>
	<text transform="matrix(1 0 0 1 0.0223 23.2047)" fill="#FFFFFF" class="svg-font" font-size="18.509">Titanis Walleri</text>
</g>
</svg>
