<?xml version="1.0" encoding="utf-8"?>
<svg version="1.2" baseProfile="tiny" xmlns="http://www.w3.org/2000/svg" xmlns:xlink="http://www.w3.org/1999/xlink" viewBox="0 0 152 152">
<path fill="#D2B470" d="M50.635,41.25c-2.515-0.989,0.755,10.012,3.448,10.25c14.083,1.244,18.965,0.353,24.25,3.243
	c3.392,1.855,3.444-15.966,0.198-15.465C66.827,41.083,61.297,45.442,50.635,41.25z"/>
<g>
	<path fill="#FEDA41" d="M3.864,31.335c-0.842,2.726-1.144,5.551-1.621,8.349c-0.253,1.487,0.751,2.292,1.561,2.809
		c0.969,0.618,0.818-0.763,1.1-1.274c0.539-0.974,1.542-0.578,2.292-0.901c1.886,0.395,3.578-0.91,6.001-0.928
		c-1.541,1.372-2.627,2.339-3.713,3.307l0.049-0.019c-1.332,0.341-2.689,0.604-3.989,1.042c-1.476,0.497-0.126,0.866,0.126,1.278
		c1.533,0.878,3.16,0.924,4.833,0.543c3.081-0.374,5.875-1.633,8.695-2.817c3.237-0.036,5.731-2.493,8.905-2.736
		c1.146,0.646,3.043-0.128,3.597,1.32c0.831,2.172,2.067,4.207,2.434,6.556c0.474,3.03,1.713,5.771,3.154,8.451
		c1.406,2.617,3.214,4.914,5.514,6.748c2.771,2.209,5.458,4.649,9.329,4.831c1.204,0.056,2.243,0.157,1.614,2.151
		c-0.476,1.51-1.519,2.829-1.573,4.488c-0.015,0.452-0.518,0.667-0.864,0.332c-0.769-0.744-1.598-0.668-1.824,0.225
		c-0.109,0.431-0.236,1.764,1.056,1.909c0.871,0.098,0.504,0.791,0.49,1.292c-0.553,0.976-1.029,1.972-0.816,3.146
		c0.072,0.814-0.288,1.682,0.371,2.637c2.925-3.187,4.499-7.131,7.063-10.685c0.944,1.509,2.477,2.279,3.928,3.09
		c-0.267,1.125-1.851,1.117-1.817,2.604c1.116-0.785,2.319,1.214,3.379-0.358c0.761,0.471,0.542,1.1,0.279,1.736
		c-0.268,0.328-0.536,0.656-0.804,0.983c-1.48,0.617-2.542,1.741-3.544,2.934c-0.356,0.424-0.598,1.372-0.117,1.274
		c1.046-0.213,2.402,0.474,3.167-0.81c1.589-0.882,3.356-1.358,4.444-3.148c0.583-0.959,1.936-1.577,3.123-0.007
		c0.662,0.876,2.446,2.196,2.777,1.717c1.671-2.415,2.761,0.002,3.458,0.497c4.249,3.022,9.232,4.845,13.114,8.536
		c1.964,1.867,2.825,3.586,2.409,6.111c-3.812,2.815-6.618,6.647-9.956,9.942c-1.943,1.918-4.415,3.51-5.189,6.413
		c-0.636,0.222-0.968,0.614-1.039,1.339c-0.218,2.226-1.075,4.173-2.554,5.891c-0.701,0.814-1.091,1.877-1.14,2.991
		c-0.029,0.669,0.056,1.327,1.036,0.978c0.126,0.279,0.253,0.558,0.379,0.836c-0.56,0.779-1.003,1.607-0.904,2.604
		c0.029,0.291,0.113,0.661,0.312,0.829c0.267,0.226,0.523-0.031,0.775-0.252c2.088-1.826,4.577-3.09,6.71-4.893
		c1.252-1.058,1.431-1.928,0.684-3.104c-0.43-0.676-0.753-1.275-0.103-1.847c0.876-0.769,0.763-1.837,1.058-2.783
		c2.421,0.045,2.937-1.415,2.73-3.451c-0.047-0.465-0.081-0.931-0.122-1.397c0.381-0.587,0.767-1.171,1.143-1.761
		c2.196-3.453,5.636-5.768,8.158-8.922c0.85-0.069,1.306-0.553,1.444-1.372c1.397-1.108,2.611-2.336,3.425-3.987
		c0.533-1.082,0.315-1.726-0.583-2.327c-0.401-0.525-0.802-1.05-1.202-1.576c0.05-0.057,0.099-0.114,0.15-0.171
		c-0.068,0.012-0.169,0.059-0.199,0.031c-1.148-1.071-2.24-2.182-3.514-3.135c-1.829-1.368-3.211-3.197-4.36-5.18
		c-0.403-0.696-0.732-1.518-0.301-2.213c0.405-0.653,1.153-0.043,1.748-0.045c1.021-0.004,2.092-0.136,3.052,0.122
		c2.016,0.541,3.996-0.915,5.93-0.072c6.161,2.682,10.896,7.156,14.428,12.706c1.811,2.846,3.474,5.857,5.089,8.859
		c0.564,1.048,0.511,2.516,1.857,3.104l0.01-0.078l0.193,0.09c-0.088,0.787-0.268,1.614,0.808,1.91
		c0.766,2.254,1.532,4.508,2.298,6.763c0.503,0.641-0.331,1.619,0.545,2.167c0.141,1.729,0.282,3.458,0.424,5.187
		c-0.973,2.079-0.491,4.284-0.563,6.442c-1.791,2.749-1.827,4.136,0.071,5.737c-0.157-1.402-0.296-2.855,1.261-3.183
		c2.206-0.465,1.79-1.723,1.205-3.145c0.339,0.213,0.969-1.257,1.131,0.252c0.207,1.929,0.593,3.838,0.901,5.756
		c0.1,0.452,0.237,0.901,0.291,1.359c0.089,0.748,0.028,1.541,1.116,1.619c1.328,0.096,0.533-0.993,0.847-1.42
		c1.31-1.787,0.376-3.888,0.916-5.768c0.246,0.143,0.492,0.285,0.738,0.428c0.291,1.316,1.107,2.487,2.402,2.283
		c1.227-0.193,0.126-1.566,0.418-2.388c0.161-0.454-0.099-1.056-0.169-1.592c-0.651-1.301-1.126-2.738-1.993-3.875
		c-1.604-2.104-1.872-4.814-3.634-6.941c-0.996-1.203-2.576-2.244-2.925-3.995c-1.297-6.515-3.5-12.672-6.571-18.594
		c-2.289-4.413-6.015-7.437-9.246-10.958c-0.822-2.095-1.268-4.48-2.59-6.188c-0.983-1.27-1.007-2.016-0.399-3.175
		c0.789,0.164,1.57,0.871,2.376,0.038c0.73-0.073,1.461-0.142,2.02-0.705c0.933,0.006,2.167,0.402,2.748-0.046
		c3.17-2.449,7.332-3.672,9.403-7.507c0.528-0.978,1.391-1.645,2.55-1.818c2.09,0.832,3.591-0.542,5.226-1.402
		c3.161-1.664,6.516-2.282,10.061-1.896c2.607,0.283,5.15,1.197,8.081,0.948c-1.203-1.337-1.971-2.738-3.601-3.19
		c-3.745-1.04-7.49-2.079-11.235-3.118c-2.538-0.704-5.187-1.01-7.61-2.124c-0.337-0.798-1.035-0.516-1.632-0.555
		c-1.647-0.108-2.484-0.597-0.754-2.198c-1.635-0.449-3.064-0.843-4.496-1.233c-6.207-1.692-11.652-5.164-17.588-7.464
		c-1.367-0.53-2.436-1.685-3.824-1.842c-3.418-0.388-6.732-2.123-10.301-0.885c-0.284,0.099-0.702-0.25-1.071-0.326
		c-2.484-0.514-5.02-1.235-7.463-1.378c-3.729-0.218-7.518,0.555-11.279,0.941c-0.682,0.07-1.285,0.397-1.697,1.049
		c3.807-0.403,7.563-0.801,11.319-1.198c-2.621-0.165-1.243,2.342-2.076,3.367c-1.154,1.421,0.809,2.148,2.14,2.776
		c-2.099,0.981-3.909-0.637-6.074,0.19c1.29,0.376,2.527,0.155,3.218,1.177l0.02-0.024c-0.936-0.013-1.983-0.331-2.462,0.903
		c-1.005-0.004-1.862,0.178-1.838,1.465l0.036-0.039c-2.136,0.418-1.105,2.139-1.369,3.328c-2.4-0.775-3.288-2.135-2.668-4.28
		c0.318-1.103-0.561-1.907-1.055-2.096c-1.75-0.67-3.551-1.763-5.676-0.81c2.327,2.216,2.091,3.014-0.829,4.06
		c-1.099,0.394-2.172-0.297-2.994-0.055c-2.447,0.719-4.776-0.867-4.488-3.376c0.071-0.621,0.212-1.047-0.728-1.368
		c-1.02-0.348-1.211-1.769-0.766-2.533c0.53-0.91,1.251-0.014,1.921,0.387c1.064,0.637,2.234,1.142,3.417,1.523
		c1.094,0.353,2.107,0.141,2.639-1.152c-4.847-0.73-6.344-2.046-6.841-6.829c-0.431-4.146-1.556-7.98-3.381-11.714
		c-0.613-1.254-2.022-1.035-2.578-2.332c-1.358-3.165-3.961-5.12-7.213-6.205c-0.865-0.303-1.701-0.61-2.63-0.796
		c-2.553-0.511-5.111-0.022-7.621-0.295c-8.11-0.881-8.549,1.278-12.073,6.623c-1.153,0.496-0.164,0.946,0.072,1.331
		c0.547,0.892-0.133,1.174-0.673,1.552c-1.816-0.187-3.065,1.179-4.626,1.69c-0.344,0.003-0.582,0.117-0.543,0.52l-0.053,0.02
		c-0.955-0.363-1.586,0.396-2.362,0.665C6.72,27.932,6.036,29.604,4.21,30.85L3.864,31.335z M3.176,43.34l-0.092,0.12l0.147,0.021
		L3.176,43.34z"/>
	<path fill="#48321A" d="M51.032,78.289c0.014-0.502,0.381-1.194-0.49-1.292c-1.292-0.145-1.166-1.478-1.056-1.909
		c0.226-0.892,1.055-0.969,1.824-0.225c0.346,0.335,0.849,0.12,0.864-0.332c0.054-1.659,1.098-2.979,1.573-4.488
		c0.628-1.993-0.411-2.094-1.614-2.151c-3.871-0.181-6.558-2.621-9.329-4.831c-2.3-1.834-4.107-4.131-5.514-6.748
		c-1.441-2.681-2.68-5.422-3.154-8.451c-0.367-2.349-1.604-4.383-2.434-6.556c-0.554-1.448-2.451-0.674-3.595-1.319
		c-0.241-0.547-1.153-0.327-1.224-1.07c2.138-0.545,4.233-1.236,6.183-2.258c1.08-0.566,2.589-1.133,1.308-2.882
		c-0.219-0.298-0.42-0.769,0.086-0.994c3.042-1.355,1.863-4.067,2.068-6.334c-0.666-0.935,0.553-3.523-2.259-2.575
		c-1.219-0.908-2.451-1.723-3.973-0.591c-0.514-1.138-1.206-0.846-1.775-0.122c-0.463,0.589-0.126,1.044,0.553,1.183
		c1.817,0.373,1.054,1.493,0.756,2.5c-0.45,1.514-1.182,1.111-2.141,0.439c-0.663-0.465-1.541-0.326-2.281-0.062
		c-0.343,0.123-0.569,0.537-0.851-0.03c-0.766-1.541-2.231-1.243-3.491-1.185c-0.98,0.045-1.776,0-2.803-1.143
		c3.962-0.161,6.455-2.85,9.979-3.725c-1.397-1.541-2.617-1.302-4.095-0.555c-2.198,1.112-4.449,2.585-7.015,0.797
		c3.525-5.345,3.964-7.505,12.073-6.623c2.51,0.273,5.068-0.216,7.621,0.295c0.929,0.186,1.765,0.494,2.629,0.794
		c0.086,0.677,0.624,1.036,1.034,1.498c1.842,2.082,3.571,4.208,4.927,6.697c1.319,2.42,0.685,5.001,1.305,7.437
		c-0.092,0.422-0.185,0.843-0.277,1.265c-1.926,3.613-3.532,7.375-4.548,11.331c-0.306,1.189-1.153,2.977,0.31,3.838
		c1.185,0.697,1.698,1.292,1.558,2.616c-0.072,0.688,0.72,0.96,1.059,1.469c0.991,1.487,2.607,2.162,4.05,3.058l-0.028-0.026
		c0.245,0.297,0.431,0.707,0.745,0.87c1.746,0.908,3.378,1.779,0.979,3.768c-0.298,0.247-0.386,0.681,0.104,0.964
		c0.567,0.072,0.837-0.385,1.114-0.728c1.115-1.379,1.98-1.952,3.071,0.162c0.407,0.789,1.592,1.199,2.285,2.064
		c0.714,0.892,1.151,0.149,1.165-0.737c0.018-1.096,0.301-2.021,1.533-2.315c0.712-0.133-0.871,3.152,1.333,0.894
		c0.163-0.167,1.067,0.023,1.241,0.294c1.047,1.636,2.547,0.92,3.921,0.882l0.122,0.108c1.457,1.633-1.048,1.951-1.128,3.397
		c1.584-0.729,2.987-1.375,4.39-2.02l-0.025-0.021c0.069,0.995,1.764,1.025,1.364,2.3c-0.323,0.018-0.402,0.145-0.185,0.409
		c0.086-0.109,0.171-0.219,0.257-0.329c0.319,0.105,0.922,0.554,0.888-0.003c-0.05-0.832-0.152-1.336,0.909-1.392
		c0.23-0.012,0.535-0.567,0.626-0.918c0.46-1.785,0.495-3.438-0.73-5.092c-0.727-0.982-2.018-2.061-1.002-3.724
		c0.189-0.31-0.307-1.203-1.122-1.236c0.263-1.189-0.768-2.91,1.369-3.328c0.466,1.764,1.928,2.823,2.932,4.21
		c1.334,1.844,2.865,3.632,3.239,5.984c0.186,1.169,0.876,1.904,1.842,2.221c0.674,0.221,0.697,0.46,0.828,1.063
		c0.855,3.971-0.903,6.499-4.351,8.095c-1.816,0.84-3.455,1.842-4.911,3.061c-2.193,1.837-4.69,2.813-7.398,2.72
		c-2.422-0.083-1.738,0.852-1.106,2.07c-1.06,1.571-2.263-0.428-3.379,0.358c-0.035-1.487,1.55-1.479,1.817-2.604
		c-1.451-0.811-2.984-1.581-3.928-3.09c-2.564,3.553-4.137,7.497-7.063,10.685c-0.659-0.956-0.299-1.823-0.371-2.637
		c2.068-0.215,2.046-1.687,1.932-3.214c1.48-0.131,1.057-1.206,0.862-2.165c-0.276,0.735-0.551,1.469-0.827,2.204
		C51.799,78.27,51.416,78.279,51.032,78.289z M49.313,62.12c0.135-0.159,0.269-0.318,0.404-0.477c-0.059-0.05-0.118-0.1-0.178-0.15
		c-0.066,0.217-0.133,0.434-0.199,0.652c-0.03,0.053-0.059,0.106-0.089,0.16C49.272,62.242,49.293,62.181,49.313,62.12z
		 M69.271,65.347c-0.892-0.658-1.812-0.044-2.667-0.23c-0.559-0.122-0.614,0.577-0.333,1.032c0.147,0.238,0.278,1.01,0.442,0.655
		C67.242,65.668,68.693,66.404,69.271,65.347z M49.671,65.283c1.264-0.215,2.202-0.32,2.47-1.437
		c0.037-0.153-0.189-0.531-0.301-0.534C50.671,63.277,50.495,64.388,49.671,65.283z M50.635,57.985
		c-0.906-0.225-1.519-0.381-1.748,0.443c-0.047,0.171,0.092,0.558,0.207,0.584C49.837,59.186,50.017,58.469,50.635,57.985z"/>
	<path fill="#D2B470" d="M76.749,47.047c-0.147-0.017-0.294-0.034-0.441-0.05c-0.692-1.022-1.928-0.801-3.218-1.177
		c2.165-0.827,3.975,0.791,6.074-0.19c-1.331-0.628-3.293-1.356-2.14-2.776c0.833-1.026-0.545-3.532,2.076-3.367
		c-3.756,0.397-7.085,1.818-10.893,2.221 M59.469,42.928c0.412-0.651,9.327-3.221,10.009-3.291c3.76-0.386,7.55-1.159,11.279-0.941
		c2.442,0.143,4.979,0.865,7.463,1.378c0.369,0.076,0.786,0.424,1.071,0.326c3.569-1.237,6.884,0.498,10.301,0.885
		c1.388,0.157,2.458,1.313,3.824,1.842c5.936,2.3,11.381,5.772,17.588,7.464c1.431,0.39,2.86,0.784,4.496,1.233
		c-1.73,1.601-0.893,2.091,0.754,2.198c0.597,0.039,1.296-0.243,1.633,0.555c-1.022,0.29-1.078,0.318-0.701,1.075
		c0.357,0.717-0.048,0.93-0.553,0.81c-2.353-0.56-4.597,1.233-7.084,0.099c-1.041-0.475-2.408-0.477-3.528-1.103
		c-0.428-0.24-0.8-0.534-1.452-0.063c-2.666,1.928-6.858,1.262-9.383-1.364c0.379-0.516,0.92-0.477,1.464-0.427
		c0.17,0.125,0.241,0.589,0.57,0.166c-0.196-0.048-0.392-0.097-0.588-0.145c-0.072-0.301-0.107-0.616-0.222-0.899
		c-0.261-0.638,0.727-1.963-0.864-1.844c-1,0.075-2.284-1.063-2.748-0.191c-0.377,0.707,0.077,2.149,0.978,2.963
		c0.171,0.154,0.376,0.27,0.565,0.403c-0.617,1.279-1.302,1.566-2.117-0.031c-0.005,2.667,2.842,4.853,0.792,7.595
		c-0.207,0.277,0.315,0.687,0.678,0.817c0.348,0.125,0.629-0.101,0.609-0.472c-0.123-2.302,1.613-1.373,2.737-1.578
		c0.044-0.691,0.087-1.39,0.131-2.09l-0.027,0.033c2.837,0.899,0.404,2.907,0.905,4.297l0.032-0.031
		c-0.726,0.118-1.265,1.579-1.905,0.723c-0.403-0.54-0.265-1.406-1.122-0.613c-0.676,0.627-0.311,1.379,0.496,1.594
		c1.096,0.292,0.508,0.969,0.377,1.423c-0.146,0.504-0.665,1.238-1.157,0.922c-2.111-1.356-2.672,0.334-3.452,1.615
		c-0.224,0.368-0.501,0.631-0.901,0.681c-3.245,0.41-6.339,1.87-9.727,1.349c-0.907-0.139-1.105-0.504-1.164-1.374
		c-0.104-1.521,0.408-2.93,0.545-4.4c0.086-0.109,0.18-0.213,0.252-0.331c0.017-0.028-0.045-0.104-0.072-0.158
		c-0.05,0.171-0.099,0.343-0.149,0.514c-0.536,0.182-1.882-0.687-1.22,1.039c0.374,0.975-0.9,1.37-1.202,1.285
		c-1.654-0.466-2.829,0.77-4.263,0.978c-0.046-0.412,0.127-0.904-0.436-1.167c-0.118,0.516,0.099,0.86,0.46,1.148
		c-0.137,1.265-1.512,0.876-2.104,1.57c-0.393,0.46-1.74-0.133-1.469,0.976c0.179,0.732,1.035,0.286,1.637,0.125
		c0.884-0.237,1.583,0.309,1.988,0.935c0.92,1.422-0.738,1.559-1.297,2.22c-0.295,0.348-0.737,1.021-1.308,0.297
		c-0.616-0.781-0.617-0.853-1.166-0.481c-1.443,0.977-3.246,1.134-4.695,2.011c-2.663,1.613-6.108,1.622-8.3,4.256
		c-0.736,0.884-1.963,1.598-3.307,0.726c0.266-0.637,0.485-1.265-0.276-1.737c-0.632-1.217-1.316-2.153,1.106-2.07
		c2.707,0.093,5.204-0.883,7.398-2.72c1.456-1.219,3.095-2.22,4.911-3.061c3.447-1.596,5.206-4.124,4.351-8.095
		c-0.13-0.604-0.154-0.842-0.828-1.063c-0.966-0.317-1.657-1.052-1.842-2.221c-0.373-2.352-1.905-4.14-3.239-5.984
		c-1.004-1.387-2.466-2.446-2.932-4.21L72.03,49.34c0.719-0.355,2.658,0.822,1.838-1.465c0.479-1.234,1.527-0.915,2.462-0.903
		 M103.784,63.587c-0.041-0.046-0.082-0.092-0.123-0.139c0.05,0.038,0.1,0.076,0.151,0.114c0.06,0.03,0.12,0.06,0.18,0.09
		C103.922,63.631,103.853,63.609,103.784,63.587z M91.492,52.192c-0.166-0.109-0.333-0.219-0.499-0.329
		c-0.032,0.085-0.065,0.171-0.097,0.256c0.206,0.015,0.412,0.029,0.618,0.044c0.437,0.71,1.115,0.325,1.704,0.405
		c1.288,0.174,2.613-0.544,3.87,0.174c0.284,1.935,1.675,1.922,3.143,1.799c0.818-0.068,0.748-0.651,0.724-1.199
		c-0.02-0.458-0.434-0.9-0.705-0.56c-1.225,1.532-1.964,0.054-2.876-0.354c-0.355-0.623-0.866-0.91-1.556-1.222
		C94.02,50.391,92.916,51.841,91.492,52.192z M91.133,43.828c1.099,2.62,2.15,2.829,4.318,1.048
		C94.197,43.791,92.624,44.362,91.133,43.828z"/>
	<path fill="#48321A" d="M90.071,64.518c-0.137,1.469-0.649,2.878-0.545,4.399c0.059,0.871,0.257,1.235,1.164,1.374
		c3.388,0.521,6.481-0.939,9.727-1.349c0.4-0.051,0.676-0.313,0.901-0.681c0.78-1.281,1.341-2.971,3.452-1.615
		c0.492,0.316,1.011-0.418,1.157-0.922c0.131-0.454,0.719-1.131-0.377-1.423c-0.807-0.215-1.172-0.967-0.496-1.594
		c0.856-0.793,0.719,0.073,1.122,0.613c0.64,0.856,1.179-0.605,1.905-0.723c0.532,1.182-1.826,1.677-0.717,3.002
		c1.983-1.743,1.998-1.807,0.685-2.971c-0.501-1.39,1.932-3.398-0.906-4.296c-0.43-0.352-0.885-0.464-1.641-0.033
		c0.721,0,1.194,0,1.668,0c-0.044,0.699-0.088,1.399-0.131,2.09c-1.124,0.205-2.86-0.723-2.737,1.578
		c0.02,0.371-0.261,0.596-0.609,0.472c-0.362-0.13-0.885-0.54-0.678-0.817c2.05-2.742-0.797-4.928-0.792-7.595
		c0.815,1.597,1.5,1.31,2.116,0.032c0.281-0.008,0.563-0.017,0.845-0.026c2.525,2.625,6.717,3.291,9.383,1.364
		c0.652-0.472,1.025-0.177,1.452,0.063c1.119,0.626,2.487,0.628,3.528,1.103c2.487,1.134,4.731-0.659,7.084-0.099
		c0.505,0.12,0.91-0.093,0.553-0.81c-0.377-0.757-0.321-0.785,0.701-1.075c2.424,1.113,5.072,1.418,7.61,2.123
		c3.745,1.04,7.49,2.078,11.235,3.118c1.631,0.453,2.398,1.853,3.601,3.19c-2.931,0.249-5.473-0.664-8.081-0.948
		c-3.545-0.386-6.901,0.233-10.061,1.896c-1.635,0.86-3.135,2.234-5.225,1.403c0.163-0.613-0.88-1.499,0.122-1.82
		c2.518-0.804,4.569-2.771,7.879-2.756c-3.729-1.22-7.037-1.875-10.344-2.249c-1.84-0.208-3.828-0.197-5.746,0.628
		c-1.139,0.489-1.812,1.117-1.8,2.126c0.018,1.475-0.786,2.682-1.182,3.965c-0.229,0.743-0.243,3.436-2.512,2.13
		c-1.526-0.879-2.168-0.157-2.799,0.98c-1.008,1.817-2.341,2.96-4.714,2.209c0.829,0.743,0.976,1.507,0.883,2.418
		c-0.1,0.978,0.106,1.9,1.114,2.405c-0.608,1.159-0.584,1.906,0.399,3.175c1.322,1.708,1.768,4.093,2.59,6.189
		c-0.712,0.414-1.051-1.541-1.901-0.293c-0.597,0.876-0.397,1.271,0.451,2.053c0.777,0.716,1.493,1.718,2.216,2.598
		c1.471,1.791,1.93,4.446,3.392,5.787c2.285,2.097,3.083,4.55,3.95,7.195c0.501,1.529,1.761,2.819,1.421,4.608
		c-1.346-0.587-1.294-2.055-1.857-3.104c-1.615-3.002-3.278-6.013-5.089-8.859c-3.532-5.55-8.267-10.024-14.428-12.706
		c-1.934-0.842-3.914,0.614-5.93,0.072c-0.96-0.258-2.031-0.126-3.052-0.122c-0.595,0.002-1.342-0.608-1.748,0.045
		c-0.432,0.695-0.102,1.516,0.301,2.213c1.148,1.983,2.53,3.812,4.36,5.18c1.274,0.953,2.367,2.064,3.514,3.135
		c0.03,0.028,0.131-0.019,0.199-0.031c-0.05,0.057-0.099,0.114-0.141,0.184c-0.325-0.482-0.89-0.114-1.261-0.301
		c-2.871-1.451-0.725,1.825-1.967,2.153c-0.373,0.099,0.596,0.534,0.93,0.843c1.885,1.744,2.442-0.425,3.491-1.134
		c0.898,0.6,1.116,1.245,0.583,2.327c-0.814,1.651-2.028,2.879-3.425,3.987c-0.694-0.626-0.756-0.793-0.461-0.904
		c1.22-0.457-0.248-1.249,0.27-1.755c-0.623-0.631-1.058-0.271-1.5,0.256c-0.469,0.56-1.133,0.331-1.73,0.358
		c0.416-2.524-0.445-4.244-2.409-6.111c-3.882-3.691-8.865-5.514-13.114-8.536c-0.697-0.496-1.787-2.912-3.458-0.497
		c-0.331,0.478-2.115-0.841-2.777-1.717c-1.187-1.57-2.54-0.952-3.123,0.007c-1.088,1.791-2.856,2.267-4.445,3.148
		c-0.531-0.549-0.049-0.691,0.33-0.978c0.946-0.716,1.199-1.54,0.165-2.421c0.268-0.328,0.536-0.656,0.804-0.983
		c1.343,0.872,2.57,0.157,3.306-0.727c2.193-2.635,5.637-2.644,8.3-4.256c1.45-0.878,3.252-1.035,4.695-2.011
		c0.55-0.372,0.55-0.3,1.166,0.481c0.571,0.723,1.013,0.051,1.308-0.297c0.559-0.661,2.217-0.798,1.297-2.22
		c-0.405-0.626-1.104-1.172-1.988-0.935c-0.603,0.162-1.458,0.607-1.637-0.125c-0.271-1.108,1.076-0.516,1.469-0.976
		c0.592-0.694,1.967-0.306,2.104-1.57l-0.025,0.019c1.434-0.208,2.61-1.444,4.264-0.978c0.302,0.085,1.575-0.31,1.202-1.285
		c-0.661-1.726,0.685-0.857,1.22-1.039L90.071,64.518z"/>
	<path fill="#D2B470" d="M68.208,41.708c-0.532,1.293-9.458,3.224-11.379,2.375c-1.183-0.382-2.352-0.887-3.417-1.523
		c-0.67-0.401-1.391-1.297-1.921-0.387c-0.445,0.764-0.254,2.185,0.766,2.533c0.939,0.321,0.799,0.747,0.728,1.368
		c-0.287,2.509,2.042,4.095,4.488,3.376c0.821-0.241,1.894,0.45,2.994,0.055c2.92-1.046,3.156-1.844,0.829-4.06
		c2.126-0.953,3.927,0.14,5.676,0.81c0.494,0.189,1.373,0.993,1.055,2.096c-0.619,2.145,0.269,3.505,2.668,4.28
		c0.815,0.033,1.312,0.926,1.122,1.236c-1.016,1.663,0.276,2.743,1.002,3.724c1.226,1.655,1.191,3.307,0.73,5.092
		c-0.09,0.351-0.396,0.906-0.626,0.918c-1.061,0.056-0.959,0.56-0.909,1.392c0.034,0.556-0.569,0.108-0.888,0.003l-0.073-0.081
		c0.401-1.273-1.294-1.304-1.363-2.298c0.297-0.192,0.415-0.465,0.345-0.808c-0.009-0.045-0.119-0.07-0.182-0.104
		c-0.044,0.309-0.09,0.62-0.136,0.931c-1.403,0.646-2.806,1.291-4.39,2.02c0.08-1.446,2.586-1.764,1.127-3.398
		c0.345-0.108,0.421-0.36,0.344-0.676c-0.014-0.057-0.128-0.148-0.162-0.135c-0.332,0.128-0.35,0.405-0.304,0.704
		c-1.374,0.038-2.874,0.754-3.921-0.882c-0.173-0.271-1.078-0.46-1.241-0.294c-2.205,2.257-0.622-1.027-1.334-0.894
		c-1.232,0.294-1.514,1.219-1.533,2.315c-0.015,0.887-0.451,1.63-1.165,0.737c-0.693-0.866-1.878-1.276-2.285-2.064
		c-1.091-2.115-1.956-1.541-3.071-0.162c-0.277,0.343-0.548,0.8-1.114,0.728c-0.489-0.283-0.402-0.717-0.104-0.964
		c2.399-1.988,0.767-2.86-0.979-3.768c-0.314-0.163-0.5-0.574-0.745-0.87c0.161-0.158,0.323-0.316,0.484-0.474
		c-0.073-0.043-0.145-0.087-0.218-0.13c-0.079,0.21-0.158,0.42-0.237,0.63c-1.443-0.896-3.059-1.571-4.05-3.058
		c-0.339-0.509-1.132-0.781-1.059-1.469c0.14-1.324-0.373-1.919-1.558-2.616c-1.463-0.861-0.615-2.649-0.31-3.838
		c1.016-3.955,2.622-7.717,4.548-11.33c0.798,0.159,0.849,1.089,1.466,1.424c0.443,0.241,0.955,0.782,1.376,0.023
		c0.972-1.755-0.809-3.131-0.725-4.78c0.007-0.128-0.309-0.407-0.442-0.387c-1.528,0.22-0.289,1.827-1.175,2.387
		c-0.063,0.04-0.148,0.047-0.223,0.069c-0.621-2.436,0.014-5.017-1.305-7.437c-1.356-2.489-3.085-4.614-4.927-6.697
		c-0.409-0.463-0.947-0.821-1.034-1.498c3.254,1.087,5.857,3.042,7.215,6.207c0.556,1.297,1.965,1.078,2.578,2.332
		c1.825,3.735,2.95,7.568,3.381,11.714c0.497,4.783,1.994,6.099,6.841,6.829 M43.954,40.336c-0.051,1.473-1.045,2.32-0.126,4.184
		c0.142-2.248,0.843-3.06,2.443-1.435C46.006,41.611,44.861,41.415,43.954,40.336z"/>
	<path fill="#FEDA41" d="M17.131,21.383c2.566,1.788,4.816,0.315,7.015-0.797c1.478-0.748,2.698-0.985,4.095,0.555
		c-3.524,0.875-6.017,3.565-9.979,3.725c1.027,1.142,1.823,1.187,2.803,1.143c1.261-0.057,2.725-0.356,3.491,1.185
		c0.282,0.567,0.508,0.153,0.851,0.03c0.74-0.265,1.618-0.403,2.281,0.062c0.959,0.672,1.692,1.074,2.141-0.439
		c0.299-1.007,1.062-2.127-0.756-2.5c-0.679-0.139-1.016-0.595-0.553-1.183c0.569-0.724,1.26-1.017,1.775,0.121
		c1.155,0.722,3.231,1.673,2.545,2.764c-0.889,1.415-0.484,4.445-3.571,4.055c-0.446-0.056-1.173-0.039-1.137,0.815
		c0.034,0.809,0.644,0.735,1.177,0.793c1.465,0.158,1.613,1.09,0.675,1.825c-0.879,0.689-2.03,1.439-3.353,0.773
		c0.336-0.673,1.74-0.735,1.33-1.686c-0.398-0.922-1.498-0.924-2.463-0.847c-0.571,0.046-1.009,0.324-1.506,0.568
		c-4.554,2.236-9.158,4.374-13.694,6.647c-1.017,0.509-2.47-0.025-3.1,1.33c-0.75,0.323-1.754-0.073-2.292,0.901
		c-0.283,0.512-0.131,1.892-1.1,1.274c-0.81-0.517-1.814-1.321-1.561-2.809c0.476-2.798,0.778-5.623,1.62-8.349L3.841,31.36
		c1.521-2.5,2.878-3.426,5.105-4.199c0.777-0.27,1.408-1.029,2.362-0.665c0.365,0.184-0.435,1.305,0.382,0.817
		c1.972-1.176,4.163-1.21,6.294-1.493c-0.103-1.049-1.139-0.927-1.454-1.556c0.54-0.377,1.22-0.66,0.673-1.552
		C16.967,22.329,15.978,21.879,17.131,21.383z"/>
	<path fill="#D2B470" d="M120.385,106.71c0.341-1.79-0.92-3.08-1.421-4.608c-0.866-2.645-1.665-5.098-3.95-7.195
		c-1.461-1.341-1.92-3.996-3.392-5.787c-0.723-0.88-1.438-1.882-2.216-2.598c-0.848-0.782-1.048-1.177-0.451-2.053
		c0.85-1.248,1.189,0.707,1.901,0.293c3.232,3.52,6.958,6.544,9.246,10.957c3.071,5.922,5.274,12.079,6.571,18.594
		c0.348,1.751,1.928,2.793,2.925,3.995c1.762,2.127,2.03,4.837,3.634,6.941c0.867,1.137,1.342,2.574,1.993,3.875
		c-1.16,0.135-0.977,2.366-2.651,1.698c-0.246-0.143-0.492-0.285-0.738-0.428c0.307-1.935-1.697-3.539-0.77-5.629
		c0.17-0.382-0.902-0.947-0.795-1.725c-0.613,0.257-1.786,0.382-1.617,0.986c0.402,1.433-0.645,2.944,0.721,4.39
		c1.495,1.584,0.913,4.704-0.709,6.189c-0.309-1.918-0.694-3.828-0.901-5.756c-0.162-1.508-0.792-0.038-1.129-0.253
		c-1.071-0.764-1.634,0.641-2.538,0.594c0.072-2.157-0.41-4.363,0.563-6.441c0.049,0.145,0.08,0.3,0.152,0.432
		c0.253,0.463,0.559,0.192,0.532-0.082c-0.183-1.88,0.375-3.919-1.108-5.537c-0.876-0.548-0.042-1.525-0.545-2.167
		c0.54-2.698-0.534-4.847-2.298-6.763c-1.075-0.295-0.896-1.122-0.807-1.909c-0.183,0.224-0.19,0.069-0.194-0.091L120.385,106.71z"
		/>
	<path fill="#D2B470" d="M107.869,75.399c-1.008-0.505-1.215-1.427-1.114-2.405c0.094-0.911-0.053-1.676-0.883-2.418
		c2.373,0.751,3.706-0.393,4.714-2.209c0.631-1.137,1.272-1.859,2.799-0.98c2.269,1.307,2.282-1.388,2.512-2.13
		c0.396-1.283,1.201-2.49,1.182-3.965c-0.013-1.009,0.661-1.636,1.8-2.126c1.918-0.824,3.905-0.836,5.746-0.628
		c3.307,0.374,6.615,1.029,10.343,2.249c-3.309-0.015-5.36,1.952-7.879,2.756c-1.003,0.32,0.041,1.207-0.122,1.82
		c-1.161,0.172-2.024,0.839-2.552,1.817c-2.071,3.836-6.233,5.058-9.403,7.507c-0.581,0.449-1.815,0.053-2.748,0.047
		c-0.951-1.274-2.037-2.384-3.45-3.319c-0.371,1.927,1.571,2.527,1.43,4.023C109.438,76.27,108.658,75.563,107.869,75.399z
		 M121.302,61.205c0.813,0.889,1.255,1.323,1.64,1.802c0.706,0.881,1.419,0.192,2.119,0.031c0.46-0.106,0.629-0.469,0.446-0.891
		c-0.279-0.643-0.902-0.86-1.519-0.924C123.242,61.146,122.482,61.205,121.302,61.205z M112.513,70.477
		c-0.032-0.053-0.053-0.137-0.098-0.152c-0.059-0.019-0.135,0.017-0.205,0.028c0.041,0.077,0.082,0.154,0.124,0.231
		C112.395,70.548,112.454,70.512,112.513,70.477z"/>
	<path fill="#D2B470" d="M91.445,98.548c0.597-0.027,1.261,0.202,1.73-0.358c0.442-0.527,0.877-0.887,1.5-0.256
		c-0.519,0.506,0.95,1.298-0.27,1.755c-0.296,0.111-0.233,0.278,0.461,0.904c-0.137,0.82-0.593,1.304-1.443,1.372
		c-1.735-0.323-2.966,0.348-4.086,1.704c-2.076,2.514-3.691,5.464-6.608,7.24c-0.205,0.125-0.72,0.939-0.324,1.425
		c0.414,0.507,1.072,0.59,1.716,0.314c0.04,0.466,0.075,0.931,0.122,1.397c0.207,2.036-0.309,3.496-2.73,3.451
		c-0.111-1.204-0.489-1.842-1.676-0.802c-0.876,0.768-1.84,1.246-3.046,0.882c0.284-0.973,0.909-2.008-0.49-2.672
		c0.774-2.902,3.246-4.495,5.189-6.413C84.827,105.196,87.632,101.363,91.445,98.548z"/>
	<path fill="#48321A" d="M7.198,40.318c0.631-1.354,2.084-0.82,3.1-1.33c4.536-2.272,9.139-4.41,13.694-6.647
		c0.497-0.244,0.936-0.522,1.506-0.568c0.965-0.077,2.065-0.075,2.463,0.847c0.411,0.951-0.993,1.013-1.33,1.686
		c-2.869-0.207-4.612,1.851-6.654,3.306c-0.433-0.071-0.802-0.058-0.704,0.55l-0.152,0.081c-0.333-0.177-0.475-0.047-0.48,0.3
		l-0.013,0.009c-1.288,0.037-2.046,1.072-2.961,1.714c-1.89,1.327-3.797,2.436-6.181,2.428c1.086-0.967,2.172-1.935,3.713-3.307
		C10.776,39.408,9.084,40.713,7.198,40.318z"/>
	<path fill="#48321A" d="M76.79,117.576c1.206,0.365,2.17-0.114,3.046-0.882c1.188-1.041,1.566-0.402,1.676,0.802
		c-0.295,0.946-0.182,2.013-1.058,2.782c-0.65,0.571-0.326,1.17,0.103,1.847c0.747,1.176,0.569,2.045-0.684,3.104
		c-2.133,1.802-4.622,3.067-6.71,4.892c-0.252,0.221-0.508,0.478-0.775,0.252c-0.199-0.168-0.283-0.539-0.312-0.829
		c-0.099-0.997,0.344-1.825,0.904-2.604c0.598-0.06,1.371,0.843,1.777-0.256c1.09-2.953,2.626-5.812,2.056-9.14L76.79,117.576z
		 M79.072,118.893c-0.057-0.053-0.113-0.105-0.17-0.158c-0.066,0.124-0.145,0.243-0.189,0.374c-0.01,0.029,0.105,0.1,0.162,0.152
		C78.941,119.138,79.007,119.016,79.072,118.893z"/>
	<path fill="#48321A" d="M128.668,134.605c1.622-1.485,2.203-4.605,0.709-6.189c-1.365-1.446-0.319-2.957-0.721-4.39
		c-0.169-0.604,1.003-0.729,1.617-0.986c-0.107,0.778,0.964,1.342,0.795,1.725c-0.927,2.091,1.077,3.694,0.77,5.629
		c-0.54,1.879,0.394,3.98-0.916,5.767c-0.313,0.427,0.482,1.516-0.847,1.42c-1.087-0.078-1.027-0.871-1.116-1.619
		C128.905,135.506,128.768,135.058,128.668,134.605z"/>
	<path fill="#FEDA41" d="M9.485,42.696c2.385,0.009,4.292-1.1,6.181-2.428c0.915-0.643,1.673-1.677,2.961-1.714
		c-0.155,0.883-0.31,1.766-0.465,2.649c-0.869,1.589-2.513,1.979-4.01,2.609c-1.24,0.522-2.838,0.294-3.646,1.727
		c-1.675,0.38-3.301,0.335-4.834-0.543c-0.074-0.937,0.617-0.761,1.197-0.953c0.938-0.312,2.261,0.006,2.666-1.366L9.485,42.696z"/>
	<path fill="#48321A" d="M84.121,112.649c-0.643,0.276-1.302,0.193-1.716-0.314c-0.396-0.486,0.119-1.3,0.324-1.425
		c2.917-1.776,4.532-4.726,6.608-7.24c1.12-1.356,2.351-2.027,4.086-1.704c-2.523,3.154-5.963,5.469-8.158,8.922
		C84.889,111.478,84.503,112.062,84.121,112.649z"/>
	<path fill="#48321A" d="M76.3,114.903c1.399,0.664,0.774,1.7,0.49,2.672l0.026-0.033c-0.427,0.179-0.505,0.56-0.549,0.956
		c-0.332,2.963-0.986,5.771-3.664,7.603c-0.98,0.349-1.066-0.309-1.036-0.978c0.049-1.114,0.439-2.177,1.14-2.991
		c1.479-1.718,2.335-3.665,2.554-5.891C75.332,115.517,75.664,115.125,76.3,114.903z"/>
	<path fill="#48321A" d="M124.099,129.189c0.904,0.048,1.468-1.358,2.538-0.594c0.583,1.424,1,2.682-1.207,3.147
		c-1.558,0.329-1.418,1.781-1.261,3.183C122.272,133.325,122.308,131.939,124.099,129.189z"/>
	<path fill="#FEDA41" d="M26.881,38.918c0.072,0.743,0.985,0.523,1.225,1.07c-3.175,0.242-5.669,2.699-8.908,2.735
		c-0.04-0.47-0.078-0.941-0.116-1.413C21.736,40.69,24.108,39.15,26.881,38.918z"/>
	<path fill="#48321A" d="M19.083,41.31c0.038,0.471,0.076,0.942,0.116,1.413c-2.817,1.183-5.612,2.442-8.693,2.817
		c0.808-1.433,2.406-1.206,3.646-1.727c1.497-0.63,3.141-1.019,4.01-2.609C18.469,41.239,18.776,41.275,19.083,41.31z"/>
	<path fill="#D2B470" d="M72.603,126.102c2.678-1.832,3.332-4.64,3.664-7.603c0.045-0.396,0.122-0.778,0.549-0.956
		c0.57,3.328-0.966,6.187-2.056,9.14c-0.406,1.099-1.179,0.196-1.777,0.256C72.856,126.66,72.729,126.381,72.603,126.102z"/>
	<path fill="#D2B470" d="M97.709,94.279c-1.05,0.709-1.606,2.878-3.491,1.134c-0.334-0.309-1.303-0.745-0.93-0.843
		c1.242-0.328-0.904-3.604,1.967-2.154c0.37,0.187,0.935-0.181,1.261,0.301C96.907,93.229,97.308,93.754,97.709,94.279z"/>
	<path fill="#D2B470" d="M62.615,81.443c1.034,0.881,0.781,1.704-0.165,2.421c-0.379,0.287-0.861,0.429-0.33,0.978
		c-0.764,1.284-2.12,0.597-3.166,0.81c-0.48,0.098-0.239-0.85,0.117-1.274C60.072,83.185,61.135,82.06,62.615,81.443z"/>
	<path fill="#48321A" d="M16.531,24.265c0.315,0.629,1.351,0.507,1.454,1.556c-2.131,0.282-4.322,0.317-6.294,1.493
		c-0.818,0.488-0.018-0.632-0.382-0.817c0,0,0.053-0.021,0.053-0.021c0.455,0.113,0.563-0.137,0.543-0.52
		C13.466,25.444,14.714,24.078,16.531,24.265z"/>
	<path fill="#48321A" d="M121.396,108.631c1.764,1.915,2.837,4.065,2.298,6.763C122.928,113.14,122.162,110.885,121.396,108.631z"/>
	<path fill="#48321A" d="M132.575,130.823c1.674,0.668,1.491-1.563,2.651-1.698c0.07,0.535,0.329,1.138,0.169,1.592
		c-0.292,0.823,0.81,2.196-0.418,2.388C133.683,133.309,132.867,132.138,132.575,130.823z"/>
	<path fill="#48321A" d="M110.244,75.437c0.141-1.496-1.802-2.096-1.43-4.023c1.413,0.936,2.499,2.045,3.45,3.319
		C111.705,75.295,110.974,75.364,110.244,75.437z"/>
	<path fill="#48321A" d="M124.238,117.56c1.483,1.619,0.925,3.658,1.108,5.537c0.027,0.274-0.28,0.545-0.532,0.082
		c-0.072-0.132-0.102-0.287-0.152-0.432C124.52,121.019,124.379,119.289,124.238,117.56z"/>
	<path fill="#48321A" d="M9.534,42.677c-0.405,1.372-1.728,1.055-2.666,1.366c-0.579,0.192-1.271,0.016-1.197,0.953
		c-0.252-0.412-1.602-0.78-0.126-1.278C6.845,43.281,8.202,43.018,9.534,42.677z"/>
	<path fill="#D2B470" d="M51.032,78.289c0.384-0.009,0.767-0.019,1.152-0.029l-0.035-0.039c0.114,1.527,0.136,2.999-1.932,3.214
		C50.003,80.26,50.479,79.265,51.032,78.289z"/>
	<path fill="#48321A" d="M73.868,47.876c0.821,2.287-1.119,1.11-1.838,1.465C72.006,48.054,72.863,47.873,73.868,47.876z"/>
	<polygon fill="#D2B470" points="3.176,43.34 3.231,43.481 3.083,43.46 	"/>
	<path fill="#D2B470" d="M11.904,25.956c0.02,0.384-0.088,0.633-0.543,0.52C11.322,26.073,11.56,25.959,11.904,25.956z"/>
	<path fill="#48321A" d="M120.395,106.631c0.004,0.16,0.01,0.315,0.194,0.091C120.588,106.722,120.395,106.631,120.395,106.631z"/>
	<path fill="#FEDA41" d="M36.527,26.449c-1.994,0.229-1.036-2.133-2.261-2.577C37.08,22.926,35.862,25.514,36.527,26.449z"/>
	<path fill="#D2B470" d="M69.271,65.347c-0.578,1.057-2.03,0.321-2.557,1.457c-0.165,0.355-0.295-0.417-0.442-0.655
		c-0.282-0.455-0.226-1.154,0.333-1.032C67.459,65.303,68.379,64.689,69.271,65.347z"/>
	<path fill="#D2B470" d="M49.671,65.283c0.824-0.895,1-2.005,2.169-1.971c0.112,0.003,0.338,0.38,0.301,0.534
		C51.873,64.963,50.935,65.068,49.671,65.283z"/>
	<path fill="#D2B470" d="M52.183,78.26c0.276-0.735,0.551-1.469,0.827-2.204c0.195,0.96,0.618,2.035-0.862,2.165L52.183,78.26z"/>
	<path fill="#D2B470" d="M50.635,57.985c-0.618,0.484-0.798,1.201-1.541,1.027c-0.115-0.027-0.254-0.413-0.207-0.584
		C49.116,57.604,49.729,57.761,50.635,57.985z"/>
	<path fill="#D2B470" d="M49.339,62.144c0.066-0.217,0.133-0.434,0.199-0.652c0.059,0.05,0.118,0.1,0.178,0.15
		c-0.135,0.159-0.269,0.318-0.404,0.477L49.339,62.144z"/>
	<path fill="#D2B470" d="M71.13,64.995c-0.086,0.109-0.171,0.219-0.257,0.329c-0.216-0.263-0.137-0.391,0.185-0.409
		C71.056,64.913,71.13,64.995,71.13,64.995z"/>
	<path fill="#D2B470" d="M49.313,62.12c-0.021,0.062-0.042,0.123-0.063,0.184c0.03-0.053,0.059-0.106,0.089-0.16
		C49.339,62.144,49.313,62.12,49.313,62.12z"/>
	<path fill="#48321A" d="M91.492,52.192c1.424-0.351,2.528-1.801,4.326-0.985c0.689,0.313,1.201,0.599,1.556,1.222
		c-0.094,0.107-0.189,0.211-0.287,0.315c-1.256-0.719-2.581,0-3.869-0.175c-0.59-0.08-1.267,0.304-1.704-0.405L91.492,52.192z"/>
	<path fill="#48321A" d="M97.374,52.429c0.913,0.407,1.652,1.886,2.876,0.354c0.271-0.339,0.685,0.103,0.705,0.56
		c0.024,0.548,0.093,1.131-0.724,1.199c-1.469,0.123-2.859,0.135-3.144-1.799C97.185,52.641,97.281,52.536,97.374,52.429z"/>
	<path fill="#48321A" d="M83.44,67.824c-0.361-0.288-0.579-0.632-0.46-1.148c0.563,0.263,0.389,0.755,0.436,1.167L83.44,67.824z"/>
	<path fill="#48321A" d="M90.101,64.543c0.05-0.171,0.099-0.343,0.149-0.514c0.026,0.054,0.088,0.13,0.072,0.158
		c-0.071,0.118-0.166,0.222-0.252,0.331C90.071,64.518,90.101,64.543,90.101,64.543z"/>
	<path fill="#FFFFFF" d="M106.631,53.626c0.196,0.048,0.392,0.097,0.588,0.145c-0.33,0.422-0.401-0.042-0.57-0.166
		C106.649,53.605,106.631,53.626,106.631,53.626z"/>
	<path fill="#48321A" d="M91.514,52.164c-0.206-0.015-0.412-0.029-0.618-0.044c0.032-0.085,0.065-0.171,0.097-0.256
		c0.166,0.109,0.333,0.219,0.499,0.328C91.492,52.192,91.514,52.164,91.514,52.164z"/>
	<path fill="#48321A" d="M103.784,63.588c0.07,0.022,0.139,0.044,0.208,0.065c-0.06-0.03-0.12-0.06-0.18-0.09L103.784,63.588z"/>
	<path fill="#48321A" d="M103.812,63.562c-0.05-0.038-0.1-0.076-0.151-0.114c0.041,0.046,0.082,0.092,0.123,0.139
		C103.784,63.588,103.812,63.562,103.812,63.562z"/>
	<path fill="#D2B470" d="M108.049,62.628c1.312,1.164,1.298,1.227-0.685,2.971c-1.108-1.325,1.249-1.82,0.717-3.002
		C108.08,62.597,108.049,62.628,108.049,62.628z"/>
	<path fill="#D2B470" d="M107.17,58.299c-0.474,0-0.947,0-1.668,0c0.756-0.431,1.211-0.318,1.641,0.033
		C107.144,58.331,107.17,58.299,107.17,58.299z"/>
	<path fill="#48321A" d="M43.954,40.336c0.908,1.078,2.052,1.275,2.317,2.749c-1.601-1.625-2.301-0.813-2.443,1.435
		C42.909,42.656,43.903,41.809,43.954,40.336z"/>
	<path fill="#48321A" d="M48.871,55.058c0.079-0.21,0.158-0.42,0.237-0.63c0.073,0.043,0.145,0.087,0.218,0.13
		c-0.161,0.158-0.323,0.316-0.484,0.474C48.844,55.032,48.871,55.058,48.871,55.058z"/>
	<path fill="#48321A" d="M69.719,62.636c0.046-0.311,0.092-0.622,0.138-0.933c0.063,0.034,0.173,0.059,0.182,0.104
		c0.069,0.342-0.049,0.616-0.345,0.808C69.693,62.615,69.719,62.636,69.719,62.636z"/>
	<path fill="#48321A" d="M66.335,61.152c-0.046-0.299-0.029-0.576,0.304-0.704c0.034-0.013,0.148,0.077,0.162,0.135
		c0.077,0.316,0.001,0.568-0.344,0.676C66.457,61.259,66.335,61.152,66.335,61.152z"/>
	<path fill="#48321A" d="M112.513,70.477c-0.059,0.036-0.119,0.072-0.178,0.108c-0.041-0.077-0.082-0.154-0.124-0.231
		c0.069-0.012,0.145-0.047,0.205-0.028C112.46,70.339,112.482,70.424,112.513,70.477z"/>
	<path fill="#D2B470" d="M19.977,37.613c-0.018,0.461-0.288,0.6-0.704,0.55C19.175,37.555,19.543,37.542,19.977,37.613z"/>
	<path fill="#D2B470" d="M19.121,38.245c-0.048,0.279-0.198,0.396-0.48,0.3C18.646,38.198,18.788,38.068,19.121,38.245z"/>
	<path fill="#D2B470" d="M79.073,118.893c-0.065,0.123-0.132,0.245-0.198,0.368c-0.057-0.052-0.171-0.122-0.162-0.152
		c0.044-0.131,0.123-0.251,0.189-0.374C78.959,118.788,79.015,118.84,79.073,118.893z"/>
</g>
</svg>
